<svg width="30" height="30" viewBox="0 0 30 30" fill="none" xmlns="http://www.w3.org/2000/svg">
<path d="M15 30L12.4787 27.4132C4.97872 19.7964 0 14.515 0 8.44311C0 3.66467 3.25532 0 7.5 0C9.8617 0 12.2234 1.1497 13.883 3.1976L15 4.49102L16.117 3.1976C17.7766 1.1497 20.1383 0 22.5 0C26.7447 0 30 3.66467 30 8.44311C30 14.515 25.0213 19.7964 17.5213 27.4132L15 30Z" fill="#FFC107"/>
<path d="M15.0002 28.2352L12.7845 25.9527C6.1936 19.2321 1.81836 14.572 1.81836 9.21445C1.81836 4.99818 4.67909 1.76465 8.40927 1.76465C10.4847 1.76465 12.5601 2.77909 14.0186 4.58606L15.0002 5.72731L15.9818 4.58606C17.4402 2.77909 19.5157 1.76465 21.5911 1.76465C25.3213 1.76465 28.182 4.99818 28.182 9.21445C28.182 14.572 23.8068 19.2321 17.2158 25.9527L15.0002 28.2352Z" stroke="white" stroke-width="0.5" stroke-dasharray="1 1"/>
</svg>
