<svg width="26" height="26" viewBox="0 0 26 26" fill="none" xmlns="http://www.w3.org/2000/svg">
<g clip-path="url(#clip0_6005_17373)">
<path d="M13 24.2444C12.8685 24.2444 12.737 24.2104 12.6192 24.1423C12.4912 24.0685 9.45091 22.3033 6.36697 19.6434C4.53915 18.067 3.08011 16.5035 2.03046 14.9963C0.672169 13.046 -0.0108883 11.17 0.000131223 9.42048C0.0130296 7.38467 0.742196 5.47012 2.05347 4.02946C3.38688 2.56452 5.16635 1.75781 7.0642 1.75781C9.49646 1.75781 11.7202 3.12027 13.0001 5.27857C14.2799 3.12032 16.5036 1.75781 18.9359 1.75781C20.7289 1.75781 22.4396 2.48571 23.753 3.80744C25.1943 5.2579 26.0133 7.30733 25.9999 9.43013C25.9888 11.1766 25.293 13.0498 23.9317 14.9974C22.8788 16.5038 21.4218 18.0666 19.6011 19.6426C16.5284 22.3021 13.5099 24.0673 13.3829 24.1412C13.2666 24.2088 13.1345 24.2444 13 24.2444Z" fill="#F77E00"/>
<path d="M13 22C12.8887 22 12.7775 21.9728 12.6778 21.9183C12.5695 21.8592 9.99691 20.4462 7.38743 18.3171C5.84082 17.0552 4.60624 15.8036 3.71808 14.5971C2.56876 13.036 1.99079 11.5343 2.00011 10.1338C2.01103 8.50418 2.62801 6.97162 3.73755 5.8184C4.86582 4.64575 6.37152 4 7.97739 4C10.0355 4 11.9171 6.09062 13 7.81829C14.083 6.09066 15.9646 4 18.0227 4C19.5398 4 20.9873 4.58267 22.0986 5.64068C23.3183 6.80175 24.0112 8.44227 23.9999 10.1415C23.9905 11.5396 23.4017 13.039 22.2498 14.598C21.3589 15.8038 20.1261 17.0549 18.5855 18.3164C15.9856 20.4453 13.4315 21.8583 13.324 21.9174C13.2256 21.9715 13.1138 22 13 22Z" fill="#F77E00" stroke="white" stroke-width="0.6" stroke-linecap="round" stroke-dasharray="1.2 1.2"/>
</g>
<defs>
<clipPath id="clip0_6005_17373">
<rect width="26" height="26" fill="white"/>
</clipPath>
</defs>
</svg>
