<svg width="20" height="20" viewBox="0 0 20 20" fill="none" xmlns="http://www.w3.org/2000/svg">
<g clip-path="url(#clip0_5_78)">
<path d="M10.039 19.7681C15.3936 19.7681 19.7497 15.3943 19.7497 10.0182C19.7497 4.64202 15.3936 0.26828 10.039 0.26828C4.6845 0.26828 0.328369 4.64161 0.328369 10.0178C0.328369 15.3943 4.6845 19.7681 10.039 19.7681ZM14.0064 18.2836V12.3046C14.0064 11.8008 14.4145 11.3911 14.9163 11.3911H19.0765C18.6197 14.4319 16.6716 16.9891 14.0064 18.2836ZM10.039 0.841613C15.0785 0.841613 19.1783 4.95798 19.1783 10.0178C19.1783 10.2873 19.1658 10.5535 19.1433 10.817H14.9163C14.0994 10.817 13.435 11.484 13.435 12.3042V18.5366C12.3847 18.96 11.2386 19.1939 10.0394 19.1939C5 19.1939 0.9002 15.0776 0.9002 10.0178C0.9002 4.95798 4.9996 0.841613 10.039 0.841613ZM5.39195 9.64565C6.28088 9.67596 7.28813 9.7107 7.77264 9.71474C8.02535 9.71676 8.37787 9.95676 8.63541 10.1321C8.67284 10.1576 8.70946 10.1822 8.74447 10.2061C8.89376 10.3063 9.21529 10.5826 9.27525 11.0186C9.26841 13.0299 9.27525 17.2351 9.27525 17.5701C9.27525 17.5992 9.27686 17.6279 9.28008 17.6562C9.28088 17.665 9.28249 17.6727 9.2837 17.6812C9.33763 18.0683 9.6676 18.3661 10.068 18.3661C10.4499 18.3661 10.7686 18.0949 10.8439 17.7341L12.1404 17.7358V16.4994H11.5871V15.9228H12.1404V14.5293H10.8612C10.8632 14.1883 10.864 13.8974 10.862 13.7188C10.8579 13.3257 10.8873 12.3252 10.903 11.7875C10.9066 11.6679 10.9095 11.5689 10.9111 11.5014C10.9135 11.4053 10.9155 11.3281 10.9171 11.2614C10.9215 11.0687 10.9239 10.9721 10.9384 10.7406C10.9497 10.5652 10.9594 10.5495 11.1203 10.3022C11.2326 10.1592 11.8286 9.78303 12.2712 9.60323C12.707 9.46343 15.9195 9.23434 16.2608 9.2307C16.6841 9.2307 16.9557 8.85091 17.1658 8.47959C17.3038 8.23555 17.4439 7.93091 17.4853 7.78586C17.5449 7.57616 17.4913 7.3899 17.34 7.02505C17.2374 6.77737 17.1042 6.4901 17.0105 6.29252C16.4897 5.19515 16.3996 5.12606 16.3042 5.05293C16.2849 5.03798 16.2628 5.02262 16.2374 5.00767C16.2374 4.97454 16.2358 4.94141 16.2322 4.90788C16.1895 4.50828 15.8217 4.32202 15.2652 4.08363C14.8205 3.89293 14.6028 3.82505 14.4861 3.80121C14.4785 3.77818 14.472 3.75717 14.4672 3.7402C14.4644 3.57778 14.3944 3.35879 14.1062 3.1705C14.0233 3.11636 13.9167 3.05818 13.7795 2.99232C13.561 2.88727 13.3046 2.78222 13.1513 2.72444C13.1171 2.71151 13.0249 2.67272 12.9276 2.63151C11.9738 2.22909 11.6056 2.10626 11.3509 2.10626C11.1678 2.10626 10.6628 2.15111 10.2024 2.21777C9.30905 2.34707 8.98994 2.4804 8.83662 2.78868C8.77384 2.91515 8.73561 3.07272 8.70181 3.79676C8.48732 3.33616 8.2833 2.93293 8.17746 2.79757C8.06841 2.65818 7.90221 2.57818 7.72797 2.57818C7.70302 2.57818 7.67807 2.57979 7.65271 2.58303L6.03058 2.79879C5.91147 2.81454 5.8004 2.86788 5.71308 2.9503L3.58591 4.96767C3.49658 5.05252 3.43702 5.16363 3.41569 5.28525C3.3996 5.3604 3.30463 5.66707 3.22052 5.93777C2.54648 8.11151 2.45432 8.62343 2.67324 8.98303C2.98913 9.50181 3.34527 9.6004 3.89215 9.6004C4.07243 9.6004 4.71348 9.62222 5.39195 9.64565ZM10.2917 17.5689C10.2917 17.6921 10.1924 17.7923 10.0692 17.7923C9.94648 17.7923 9.84668 17.6925 9.84668 17.5689V16.8057C9.84668 16.7063 9.84668 16.6004 9.84668 16.4909C9.84668 15.5325 9.84668 14.2824 9.84668 14.2824H10.2909C10.2909 14.2824 10.2913 15.5321 10.2913 16.4909V17.5689H10.2917ZM10.2909 13.7248C10.2922 13.8242 10.2922 13.9608 10.2917 14.122H9.84708C9.84909 13.6792 9.84547 13.2364 9.84708 12.8287H10.3034C10.2946 13.1883 10.2885 13.5273 10.2909 13.7248ZM10.3682 10.7046C10.3477 11.0287 10.3501 11.1055 10.34 11.4861C10.3344 11.6909 10.3191 12.1818 10.307 12.6683H9.84708V11.0331C9.84708 10.9875 9.84346 10.8234 9.81086 10.7341C9.87203 10.756 9.91871 10.764 9.93964 10.764C10.0121 10.764 10.1859 10.7224 10.371 10.6715C10.3698 10.6824 10.369 10.6929 10.3682 10.7046ZM11.7143 14.9576V15.4941H11.161V16.9273H11.7143V17.3071H10.8612C10.86 17.2828 10.8612 14.9576 10.8612 14.9576H11.7143ZM15.872 5.48444C15.9034 5.48444 15.9328 5.4901 15.9573 5.50909C16.0443 5.57576 16.9771 7.48444 16.936 7.62828C16.895 7.77212 16.4901 8.65697 16.2596 8.65697C16.029 8.65697 12.5095 8.88848 12.0636 9.06868C11.732 9.20242 11.2105 9.48727 10.8893 9.74101L11.1714 9.27798L13.107 7.21616L15.7469 5.49697C15.7863 5.49414 15.8306 5.48444 15.872 5.48444ZM14.3054 4.37899C14.3268 4.36889 14.3469 4.36202 14.3646 4.36202C14.4515 4.36202 15.6491 4.82545 15.6648 4.96969C15.6761 5.07474 15.6362 5.25899 15.6378 5.37697L13.0044 7.09171L11.0499 9.17373L10.4881 10.0933L10.837 8.95717L12.5497 6.32485L14.3054 4.37899ZM11.3521 2.68C11.6286 2.68 12.7457 3.18384 12.9505 3.26141C13.2241 3.36485 13.9163 3.65535 13.8958 3.75838C13.8789 3.84242 14.0274 4.21091 14.0881 4.3806L12.4266 6.22222L10.6905 8.88889L10.2712 10.2541C10.229 10.2659 10.1879 10.2768 10.1501 10.2869L10.2455 9.47717L10.7392 6.20283L11.4306 2.69616L11.3521 2.68ZM9.34889 3.04525C9.44386 2.85454 10.8451 2.70384 11.27 2.68283L10.5819 6.17495L10.0873 9.45535L9.98471 10.3269C9.98189 10.3273 9.97948 10.3281 9.97706 10.3285L9.95292 8.4L9.20201 6.12606C9.22173 5.91515 9.24829 3.24687 9.34889 3.04525ZM7.72877 3.15232C7.90744 3.3806 8.68772 5.11313 8.87203 5.65818C8.89457 5.72444 8.91589 5.78262 8.93642 5.83474L9.79235 8.42707L9.81408 10.1705L9.44104 8.61293L8.08048 6.12646L6.19557 3.35636L7.72877 3.15232ZM6.04789 3.42384L7.94245 6.20687L9.29094 8.67111L9.64185 10.1354L9.05795 8.97697L6.05191 6.39596L6.04507 6.3903L4.04145 5.32687L6.04789 3.42384ZM3.16217 8.68404C2.99436 8.40848 3.81851 6.00444 3.96096 5.46626L5.95453 6.52444L8.92958 9.07879L9.4004 10.0125C9.28974 9.89777 9.17263 9.80283 9.06197 9.72889C8.72072 9.5006 8.2503 9.14545 7.77827 9.14141C6.9167 9.13414 4.3167 9.02707 3.89416 9.02707C3.47082 9.02666 3.34084 8.97777 3.16217 8.68404ZM6.65352 10.8174H5.12998C4.28531 10.8174 3.59758 11.5075 3.59758 12.3556V14.4857C3.59758 15.3337 4.28491 16.0242 5.12998 16.0242H6.65352C7.49819 16.0242 8.18551 15.3341 8.18551 14.4857V12.3556C8.18591 11.5075 7.49859 10.8174 6.65352 10.8174ZM7.61408 14.4857C7.61408 15.0174 7.1831 15.4501 6.65352 15.4501H5.12998C4.6004 15.4501 4.16941 15.0174 4.16941 14.4857V12.3556C4.16941 11.8238 4.6004 11.3911 5.12998 11.3911H6.65352C7.1831 11.3911 7.61408 11.8238 7.61408 12.3556V14.4857Z" fill="#F2EDE6"/>
</g>
<defs>
<clipPath id="clip0_5_78">
<rect width="20" height="20" fill="white"/>
</clipPath>
</defs>
</svg>
