<svg width="20" height="13" viewBox="0 0 20 13" fill="none" xmlns="http://www.w3.org/2000/svg">
<g id="satochip" clip-path="url(#clip0_1_46)">
<path d="M19.337 12.485H0.460009C0.337295 12.4847 0.219683 12.4359 0.132911 12.3491C0.0461385 12.2623 -0.00272654 12.1447 -0.00299072 12.022V0.46C-0.00193757 0.337807 0.0472755 0.220962 0.133963 0.134837C0.22065 0.0487113 0.337812 0.000258818 0.460009 0H19.337C19.459 0.000521445 19.5759 0.04909 19.6624 0.135187C19.7489 0.221285 19.798 0.33798 19.799 0.46V12.02C19.7993 12.1429 19.7508 12.2609 19.6642 12.348C19.5776 12.4352 19.4599 12.4845 19.337 12.485Z" fill="#F2EDE6"/>
<g clip-path="url(#clip1_1_46)">
<path d="M6.11986 4.38356H3.38014C3.17053 4.38356 3 4.55409 3 4.7637V6.7363C3 6.94591 3.17053 7.11644 3.38014 7.11644H6.11986C6.32947 7.11644 6.5 6.94591 6.5 6.7363V4.7637C6.5 4.55409 6.32947 4.38356 6.11986 4.38356ZM6.17808 5.69863H5.34932V5.31164C5.34932 5.27954 5.37543 5.25342 5.40753 5.25342H6.17808V5.69863ZM5.34932 5.80137H6.17808V6.24657H5.34932V5.80137ZM6.28082 5.5274H6.39726V5.9726H6.28082V5.5274ZM6.28082 5.42466V4.97945H6.39726V5.42466H6.28082ZM6.17808 5.15068H5.40753C5.31878 5.15068 5.24658 5.22289 5.24658 5.31164V6.79452H4.25342V4.70548H6.11986C6.15197 4.70548 6.17808 4.73159 6.17808 4.7637V5.15068ZM4.15068 5.69863H3.32192V5.25342H4.15068V5.69863ZM3.21918 5.9726H3.10274V5.5274H3.21918V5.9726ZM3.32192 5.80137H4.15068V6.24657H3.32192V5.80137ZM4.80137 4.60274V4.4863H5.73973V4.60274H4.80137ZM4.69863 4.60274H3.76027V4.4863H4.69863V4.60274ZM4.15068 4.70548V5.15068H3.32192V4.7637C3.32192 4.73159 3.34803 4.70548 3.38014 4.70548H4.15068ZM3.21918 5.42466H3.10274V4.97945H3.21918V5.42466ZM3.10274 6.07534H3.21918V6.52055H3.10274V6.07534ZM3.32192 6.34931H4.15068V6.79452H3.38014C3.34803 6.79452 3.32192 6.7684 3.32192 6.7363V6.34931ZM4.69863 6.89726V7.0137H3.76027V6.89726H4.69863ZM4.80137 6.89726H5.73973V7.0137H4.80137V6.89726ZM5.34932 6.79452V6.34931H6.17808V6.7363C6.17808 6.7684 6.15197 6.79452 6.11986 6.79452H5.34932ZM6.28082 6.07534H6.39726V6.52055H6.28082V6.07534ZM6.39726 4.7637V4.87671H6.28082V4.7637C6.28082 4.67494 6.20862 4.60274 6.11986 4.60274H5.84247V4.4863H6.11986C6.27282 4.4863 6.39726 4.61074 6.39726 4.7637ZM3.38014 4.4863H3.65753V4.60274H3.38014C3.29138 4.60274 3.21918 4.67494 3.21918 4.7637V4.87671H3.10274V4.7637C3.10274 4.61074 3.22718 4.4863 3.38014 4.4863ZM3.10274 6.7363V6.62329H3.21918V6.7363C3.21918 6.82505 3.29138 6.89726 3.38014 6.89726H3.65753V7.0137H3.38014C3.22718 7.0137 3.10274 6.88926 3.10274 6.7363ZM6.11986 7.0137H5.84247V6.89726H6.11986C6.20862 6.89726 6.28082 6.82505 6.28082 6.7363V6.62329H6.39726V6.7363C6.39726 6.88926 6.27282 7.0137 6.11986 7.0137Z" fill="white"/>
</g>
<path d="M7.61266 5.32823C7.61266 5.32823 7.67062 5.30189 7.7075 5.34404C7.74439 5.38619 7.83923 5.54953 7.83923 5.71286C7.83923 5.8762 7.79708 6.05008 7.75493 6.10804C7.71277 6.166 7.67062 6.166 7.63901 6.14492C7.60739 6.12385 7.11738 5.74975 7.09104 5.73921C7.06469 5.72867 7.05415 5.75502 7.08049 5.89728C7.10684 6.03954 7.06469 6.0817 7.0278 6.08696C6.99092 6.09223 6.88028 6.06062 6.87501 5.76556C6.86974 5.47049 6.94877 5.42307 6.98565 5.42307C7.05496 5.42307 7.58118 5.89814 7.61793 5.89201C7.64954 5.88674 7.66535 5.68652 7.60212 5.52845C7.53366 5.3573 7.61266 5.32823 7.61266 5.32823ZM8.45965 5.03317C8.63664 5.38463 8.62583 5.71696 8.62442 5.75203C8.62583 5.78259 8.63664 6.11536 8.45965 6.46682C8.45965 6.46682 8.41355 6.51951 8.34505 6.4879C8.27655 6.45629 8.30026 6.37198 8.30026 6.37198C8.30026 6.37198 8.44368 6.0951 8.43989 5.75502L8.43996 5.74975C8.44368 5.40962 8.30026 5.12801 8.30026 5.12801C8.30026 5.12801 8.27655 5.04371 8.34505 5.01209C8.41355 4.98048 8.45965 5.03317 8.45965 5.03317ZM8.11639 5.19124C8.26074 5.45468 8.25096 5.71696 8.24955 5.75203C8.25096 5.78259 8.26074 6.03428 8.11658 6.31904C8.11658 6.31904 8.07048 6.37174 8.00198 6.34012C7.93349 6.30851 7.9572 6.22421 7.9572 6.22421C7.9572 6.22421 8.04999 6.09223 8.06502 5.75502L8.06509 5.74975C8.05526 5.41253 7.957 5.28608 7.957 5.28608C7.957 5.28608 7.93329 5.20178 8.00179 5.17016C8.07029 5.13855 8.11639 5.19124 8.11639 5.19124Z" fill="white"/>
</g>
<defs>
<clipPath id="clip0_1_46">
<rect width="19.799" height="12.485" fill="white"/>
</clipPath>
<clipPath id="clip1_1_46">
<rect width="3.5" height="3.5" fill="white" transform="translate(3 4)"/>
</clipPath>
</defs>
</svg>
