<svg width="100" height="22" viewBox="0 0 100 22" fill="none" xmlns="http://www.w3.org/2000/svg">
<path d="M33.3415 10.8381C33.0447 10.5981 32.717 10.4025 32.3596 10.2523C32.0021 10.1022 31.6436 9.96688 31.2872 9.84635C30.9298 9.72582 30.6021 9.60106 30.3042 9.47102C30.0074 9.34097 29.7681 9.18556 29.5862 9.00476C29.4042 8.82397 29.3138 8.58925 29.3138 8.29851C29.3138 7.95806 29.45 7.69798 29.7223 7.51824C29.9947 7.3385 30.367 7.24758 30.8404 7.24758C31.2532 7.24758 31.6234 7.32793 31.951 7.48864C32.2787 7.64934 32.5979 7.89886 32.9106 8.2393L34.2702 6.88811C33.8979 6.4578 33.4181 6.10679 32.834 5.83718C32.25 5.56652 31.5947 5.43225 30.8691 5.43225C30.184 5.43225 29.5702 5.55278 29.0255 5.79278C28.4819 6.03278 28.0532 6.37851 27.7415 6.8289C27.4298 7.2793 27.2734 7.82591 27.2734 8.46556C27.2734 9.00582 27.3638 9.4541 27.5447 9.80934C27.7266 10.1646 27.9649 10.4553 28.2628 10.6805C28.5596 10.9057 28.8872 11.0929 29.2447 11.2441C29.6021 11.3942 29.9596 11.5274 30.317 11.6416C30.6745 11.7568 31.0021 11.8848 31.3 12.0243C31.5968 12.1649 31.8362 12.3352 32.0181 12.535C32.2 12.7359 32.2904 12.996 32.2904 13.3163C32.2904 13.6863 32.1319 13.9771 31.8149 14.1875C31.4979 14.3979 31.0723 14.5026 30.5383 14.5026C29.9436 14.5026 29.4404 14.3905 29.0266 14.1642C28.6138 13.939 28.251 13.6219 27.9393 13.2106L26.5798 14.5618C27.0734 15.1422 27.6255 15.5778 28.234 15.8675C28.8436 16.1582 29.5766 16.3031 30.433 16.3031C31.6415 16.3031 32.5936 16.0229 33.2883 15.4626C33.984 14.9022 34.3308 14.1315 34.3308 13.1503C34.3308 12.5995 34.2404 12.1364 34.0596 11.7611C33.8787 11.3857 33.6393 11.0781 33.3415 10.8381Z" fill="black"/>
<path d="M39.1223 5.59613L34.8457 16.153H36.9914L37.75 14.1854H42.1223L42.8702 16.153H45.0617L40.8 5.59613H39.1223ZM38.4085 12.4747L39.95 8.47613L41.4702 12.4747H38.4085Z" fill="black"/>
<path d="M44.3043 7.41358H47.6894V16.154H49.7596V7.41358H53.1447V5.59613H44.3043V7.41358Z" fill="black"/>
<path d="M62.8085 7.00017C62.3096 6.50431 61.7276 6.11947 61.0627 5.84458C60.3978 5.56969 59.6723 5.43118 58.8872 5.43118C58.1106 5.43118 57.3904 5.56863 56.7266 5.84458C56.0617 6.11947 55.4798 6.50537 54.9819 7.00017C54.483 7.49603 54.0957 8.07224 53.8181 8.72775C53.5404 9.38325 53.4021 10.0927 53.4021 10.8529C53.4021 11.6141 53.5436 12.3267 53.8255 12.9928C54.1074 13.6588 54.4978 14.2393 54.9968 14.7351C55.4957 15.231 56.0798 15.619 56.75 15.8992C57.4202 16.1794 58.1425 16.32 58.9181 16.32C59.6936 16.32 60.4117 16.1794 61.0713 15.8992C61.7308 15.619 62.3106 15.231 62.8095 14.7351C63.3074 14.2393 63.6978 13.661 63.9798 13.0012C64.2617 12.3404 64.4032 11.6299 64.4032 10.8687C64.4032 10.1085 64.2617 9.397 63.9798 8.73621C63.6968 8.07436 63.3064 7.49603 62.8085 7.00017ZM61.8564 12.7147C61.5691 13.2455 61.1734 13.661 60.6702 13.9612C60.1659 14.2615 59.5723 14.4116 58.8872 14.4116C58.3936 14.4116 57.9372 14.327 57.5191 14.1568C57.101 13.9866 56.7436 13.7466 56.4468 13.4358C56.1489 13.126 55.9181 12.7496 55.751 12.3098C55.5851 11.8689 55.5021 11.3836 55.5021 10.8529C55.5021 10.1519 55.6457 9.53656 55.933 9.00581C56.2202 8.47612 56.6181 8.06272 57.1266 7.76669C57.6351 7.47171 58.2223 7.32369 58.8872 7.32369C59.401 7.32369 59.8638 7.40828 60.2776 7.5785C60.6904 7.74872 61.0478 7.99189 61.35 8.30695C61.6521 8.62202 61.884 8.99524 62.0457 9.42554C62.2064 9.85585 62.2872 10.3316 62.2872 10.8529C62.2872 11.5633 62.1436 12.184 61.8564 12.7147Z" fill="black"/>
<path d="M72.6298 14.142C72.201 14.3218 71.6904 14.4116 71.0957 14.4116C70.6021 14.4116 70.151 14.327 69.7425 14.1568C69.334 13.9866 68.9798 13.7434 68.6766 13.4284C68.3744 13.1133 68.1425 12.7401 67.9819 12.3098C67.8202 11.8795 67.7393 11.3984 67.7393 10.8677C67.7393 10.3475 67.8202 9.86854 67.9819 9.434C68.1425 8.99841 68.3744 8.62308 68.6766 8.30801C68.9787 7.99294 69.334 7.75295 69.7425 7.58696C70.151 7.42202 70.601 7.33955 71.0957 7.33955C71.6596 7.33955 72.1532 7.42942 72.5766 7.61022C73 7.78995 73.3564 8.04052 73.6489 8.36087L75.0393 6.97797C74.5457 6.49691 73.9766 6.11947 73.3319 5.84458C72.6872 5.56969 71.9415 5.43118 71.0957 5.43118C70.3096 5.43118 69.5872 5.5718 68.9266 5.85198C68.267 6.13215 67.6872 6.51806 67.1893 7.00863C66.6904 7.4992 66.3074 8.07436 66.0404 8.73621C65.7734 9.397 65.6393 10.1075 65.6393 10.8687C65.6393 11.6299 65.7734 12.3404 66.0404 13.0012C66.3074 13.662 66.6904 14.2403 67.1893 14.7351C67.6872 15.231 68.2691 15.6159 68.934 15.8918C69.5989 16.1667 70.3191 16.3041 71.0947 16.3041C71.9606 16.3041 72.7213 16.1688 73.3755 15.8992C74.0308 15.6285 74.6053 15.2479 75.0989 14.7573L73.7085 13.3755C73.4181 13.7054 73.0574 13.9612 72.6298 14.142Z" fill="black"/>
<path d="M83.1989 9.80195H78.5904V5.59613H76.5351V16.154H78.5904V11.6035H83.1989V16.154H85.2542V5.59613H83.1989V9.80195Z" fill="black"/>
<path d="M89.4851 5.59613H87.4297V16.153H89.4851V5.59613Z" fill="black"/>
<path d="M98.9447 7.15137C98.633 6.65552 98.2064 6.27278 97.6681 6.00212C97.1298 5.73146 96.5224 5.59613 95.8468 5.59613H93.716H93.1723H91.6606V16.153H93.716V12.2337H95.8468C96.5224 12.2337 97.1287 12.0983 97.6681 11.8277C98.2075 11.5581 98.633 11.1753 98.9447 10.6795C99.2564 10.1836 99.4138 9.59578 99.4138 8.9149C99.4128 8.23402 99.2564 7.64618 98.9447 7.15137ZM97.1309 9.80829C96.9798 10.0536 96.7734 10.2418 96.5117 10.3718C96.2489 10.5019 95.9575 10.5674 95.6351 10.5674H93.716V7.26345H95.6351C95.9575 7.26345 96.25 7.32899 96.5117 7.45904C96.7734 7.58908 96.9798 7.77939 97.1309 8.02996C97.2819 8.28054 97.3575 8.57551 97.3575 8.91595C97.3575 9.26591 97.2819 9.56406 97.1309 9.80829Z" fill="black"/>
<path d="M10.4798 20.6622C15.9138 20.6622 20.3351 16.2682 20.3351 10.8677C20.3351 5.46713 15.9138 1.07312 10.4798 1.07312C5.04573 1.07312 0.624451 5.46713 0.624451 10.8677C0.624451 16.2682 5.04466 20.6622 10.4798 20.6622ZM14.5064 19.1714V13.1651C14.5064 12.6587 14.9202 12.2474 15.4298 12.2474H19.6521C19.1883 15.3018 17.2106 17.8699 14.5064 19.1714ZM10.4798 1.64933C15.5947 1.64933 19.7553 5.78431 19.7553 10.8677C19.7553 11.1383 19.7425 11.4058 19.7202 11.6701H15.4298C14.601 11.6701 13.9266 12.3404 13.9266 13.164V19.4252C12.8606 19.8502 11.6979 20.0849 10.4798 20.0849C5.36488 20.0849 1.20424 15.9499 1.20424 10.8666C1.20424 5.78325 5.36488 1.64933 10.4798 1.64933ZM5.76275 10.4934C6.66488 10.524 7.68722 10.5589 8.17871 10.5632C8.43509 10.5653 8.79254 10.8063 9.05424 10.9829C9.09254 11.0083 9.12977 11.0336 9.16488 11.0569C9.317 11.1573 9.64254 11.4354 9.70424 11.8731C9.69679 13.8936 9.70424 18.1184 9.70424 18.4546C9.70424 18.4842 9.70637 18.5128 9.70956 18.5413C9.71062 18.5498 9.71168 18.5582 9.71381 18.5667C9.76807 18.9558 10.1032 19.255 10.5096 19.255C10.8968 19.255 11.2202 18.9822 11.2968 18.6206L12.6127 18.6217V17.3794H12.051V16.8H12.6127V15.4002H11.3138C11.3159 15.0576 11.317 14.7648 11.3149 14.5861C11.3106 14.1917 11.3404 13.1862 11.3564 12.646C11.3596 12.5255 11.3627 12.4261 11.3649 12.3584C11.367 12.2622 11.3691 12.184 11.3713 12.1173C11.3755 11.9239 11.3776 11.8266 11.3925 11.594C11.4042 11.4174 11.4138 11.4016 11.5776 11.1531C11.6915 11.0093 12.2968 10.6319 12.7457 10.4511C13.1883 10.3105 16.4489 10.0811 16.7947 10.0768C17.2245 10.0768 17.5 9.69515 17.7127 9.32193C17.8532 9.07665 17.9947 8.77109 18.0372 8.62519C18.0979 8.41479 18.0436 8.22766 17.8893 7.86079C17.7851 7.61233 17.65 7.3237 17.5553 7.12493C17.0266 6.0222 16.9351 5.95347 16.8383 5.87946C16.8191 5.86466 16.7957 5.8488 16.7702 5.834C16.7702 5.80123 16.7681 5.7674 16.7649 5.73356C16.7213 5.3318 16.3479 5.14466 15.784 4.90572C15.333 4.71435 15.1117 4.64563 14.9936 4.62237C14.9862 4.59911 14.9787 4.57797 14.9745 4.56105C14.9713 4.39823 14.901 4.17832 14.6085 3.98907C14.5245 3.93515 14.4159 3.87594 14.2766 3.81039C14.0542 3.70466 13.7947 3.59893 13.6393 3.54079C13.6042 3.5281 13.5117 3.48898 13.4127 3.44774C12.4447 3.04387 12.0713 2.92017 11.8127 2.92017C11.6266 2.92017 11.1149 2.96563 10.6468 3.03224C9.74041 3.16228 9.41594 3.29656 9.26062 3.60634C9.19679 3.73321 9.15849 3.8918 9.12339 4.6192C8.90636 4.15717 8.69892 3.75118 8.59147 3.61585C8.48083 3.47524 8.31168 3.39594 8.13509 3.39594C8.10956 3.39594 8.08403 3.39806 8.05849 3.40123L6.41275 3.61797C6.29147 3.63383 6.17871 3.68669 6.09041 3.77021L3.9319 5.797C3.84147 5.88158 3.78083 5.99365 3.75849 6.11629C3.74254 6.19136 3.64573 6.50008 3.56062 6.7718C2.87658 8.95506 2.78296 9.46995 3.0053 9.83048C3.32551 10.3517 3.68722 10.45 4.24254 10.45C4.42339 10.4479 5.07445 10.4701 5.76275 10.4934ZM10.7362 18.4536C10.7362 18.5773 10.6351 18.6777 10.5106 18.6777C10.3862 18.6777 10.2851 18.5773 10.2851 18.4536V17.687C10.2851 17.5866 10.2851 17.4809 10.2851 17.3709C10.2851 16.4077 10.2851 15.1528 10.2851 15.1528H10.7362C10.7362 15.1528 10.7362 16.4088 10.7362 17.3709V18.4536ZM10.7351 14.5914C10.7362 14.6918 10.7362 14.8282 10.7362 14.9899H10.2851C10.2872 14.5448 10.283 14.1008 10.2851 13.6906H10.7479C10.7383 14.0522 10.733 14.3926 10.7351 14.5914ZM10.8138 11.557C10.7925 11.8826 10.7957 11.9598 10.7851 12.3415C10.7798 12.5477 10.7638 13.0403 10.751 13.5288H10.284V11.8858C10.284 11.8403 10.2808 11.6754 10.2468 11.5855C10.3085 11.6077 10.3564 11.6151 10.3776 11.6151C10.451 11.6151 10.6276 11.5729 10.8149 11.5221C10.8149 11.5348 10.8138 11.5454 10.8138 11.557ZM12.1798 15.8294V16.3686H11.6181V17.8086H12.1798V18.1903H11.3138C11.3127 18.166 11.3138 15.8305 11.3138 15.8305H12.1798V15.8294ZM16.4 6.31294C16.4319 6.31294 16.4617 6.31823 16.4872 6.33726C16.5755 6.40493 17.5223 8.32175 17.4808 8.4666C17.4393 8.61145 17.0287 9.50061 16.7947 9.50061C16.5606 9.50061 12.9883 9.73321 12.5362 9.914C12.2 10.0483 11.6702 10.3348 11.3447 10.5896L11.6308 10.1244L13.5947 8.05321L16.2734 6.32563C16.3127 6.32352 16.3574 6.31294 16.4 6.31294ZM14.8096 5.20281C14.8308 5.19224 14.8521 5.18589 14.8691 5.18589C14.9574 5.18589 16.1734 5.6511 16.1883 5.79594C16.2 5.90167 16.1596 6.08669 16.1606 6.2051L13.4883 7.9274L11.5053 10.0187L10.9351 10.9427L11.2893 9.80193L13.0276 7.1577L14.8096 5.20281ZM11.8117 3.49638C12.0925 3.49638 13.2266 4.00281 13.434 4.07999C13.7117 4.18361 14.4138 4.47541 14.3936 4.57902C14.3766 4.66361 14.5266 5.03365 14.5893 5.20387L12.9032 7.05409L11.1415 9.73321L10.7159 11.1045C10.6734 11.1161 10.6319 11.1277 10.5925 11.1373L10.6893 10.3242L11.1904 7.03506L11.8915 3.51224L11.8117 3.49638ZM9.77871 3.86325C9.87551 3.67189 11.2968 3.5207 11.7287 3.49849L11.0298 7.00651L10.5276 10.302L10.4234 11.1774C10.4213 11.1785 10.4181 11.1785 10.4159 11.1796L10.3915 9.24264L9.62977 6.95788C9.64998 6.74537 9.67658 4.06519 9.77871 3.86325ZM8.13509 3.97004C8.317 4.19946 9.10849 5.93973 9.29573 6.48739C9.31807 6.554 9.34041 6.61215 9.36062 6.66502L10.2298 9.26907L10.2521 11.0199L9.87339 9.45515L8.49254 6.95682L6.57977 4.17409L8.13509 3.97004ZM6.42871 4.24281L8.35105 7.03823L9.71913 9.5133L10.0755 10.984L9.48296 9.81991L6.4319 7.22748L6.42551 7.2222L4.39253 6.1533L6.42871 4.24281ZM3.49998 9.52704C3.32977 9.25004 4.16594 6.83524 4.31062 6.29391L6.33402 7.35647L9.35317 9.92246L9.83083 10.8603C9.71913 10.745 9.59998 10.6499 9.48722 10.5748C9.14041 10.3454 8.66381 9.98907 8.18402 9.98484C7.30956 9.97744 4.67126 9.8696 4.24147 9.8696C3.81381 9.87171 3.6819 9.82202 3.49998 9.52704ZM7.0436 11.6701H5.49679C4.63934 11.6701 3.94147 12.3637 3.94147 13.2159V15.3558C3.94147 16.2079 4.63934 16.9015 5.49679 16.9015H7.0436C7.90105 16.9015 8.59892 16.2079 8.59892 15.3558V13.2159C8.59892 12.3637 7.90105 11.6701 7.0436 11.6701ZM8.01807 15.3558C8.01807 15.8897 7.58083 16.3253 7.04254 16.3253H5.49573C4.95849 16.3253 4.5202 15.8907 4.5202 15.3558V13.2159C4.5202 12.6819 4.95743 12.2463 5.49573 12.2463H7.04254C7.57977 12.2463 8.01807 12.6809 8.01807 13.2159V15.3558Z" fill="black"/>
</svg>
