<svg width="204" height="137" viewBox="0 0 204 137" fill="none" xmlns="http://www.w3.org/2000/svg">
<g clip-path="url(#clip0_3_181)">
<path opacity="0.4" d="M24.651 133.805C24.651 133.228 24.8221 132.664 25.1428 132.184C25.4634 131.704 25.9191 131.33 26.4523 131.109C26.9855 130.888 27.5722 130.83 28.1383 130.943C28.7043 131.056 29.2242 131.334 29.6323 131.742C30.0404 132.15 30.3183 132.67 30.4309 133.236C30.5435 133.802 30.4857 134.388 30.2649 134.922C30.044 135.455 29.67 135.911 29.1902 136.231C28.7103 136.552 28.1461 136.723 27.569 136.723C26.7951 136.723 26.0529 136.416 25.5057 135.868C24.9584 135.321 24.651 134.579 24.651 133.805ZM34.856 133.945C34.8562 133.551 34.9733 133.166 35.1924 132.838C35.4115 132.51 35.7228 132.255 36.087 132.104C36.4512 131.954 36.8519 131.914 37.2384 131.991C37.625 132.068 37.98 132.258 38.2586 132.537C38.5372 132.816 38.727 133.171 38.8038 133.558C38.8806 133.944 38.8411 134.345 38.6902 134.709C38.5393 135.073 38.2839 135.384 37.9561 135.603C37.6284 135.822 37.2431 135.939 36.849 135.939C36.5872 135.939 36.3279 135.887 36.0861 135.787C35.8442 135.687 35.6245 135.54 35.4394 135.355C35.2543 135.17 35.1075 134.95 35.0074 134.708C34.9073 134.466 34.8559 134.207 34.856 133.945ZM0 95.009C0 88.2715 1.99788 81.6854 5.74099 76.0835C9.4841 70.4815 14.8043 66.1153 21.0289 63.537C27.2535 60.9587 34.1028 60.2841 40.7108 61.5985C47.3187 62.9129 53.3885 66.1573 58.1526 70.9214C62.9167 75.6854 66.161 81.7552 67.4754 88.3632C68.7899 94.9712 68.1153 101.821 65.537 108.045C62.9587 114.27 58.5925 119.59 52.9905 123.333C47.3885 127.076 40.8024 129.074 34.065 129.074C25.0305 129.074 16.3661 125.485 9.9777 119.096C3.58933 112.708 0.000265202 104.043 0 95.009ZM8.108 61.767C8.108 61.0352 8.325 60.3198 8.73156 59.7113C9.13812 59.1029 9.71599 58.6286 10.3921 58.3486C11.0682 58.0686 11.8121 57.9953 12.5298 58.1381C13.2476 58.2808 13.9068 58.6332 14.4243 59.1507C14.9417 59.6681 15.2941 60.3274 15.4369 61.0451C15.5797 61.7629 15.5064 62.5068 15.2264 63.1829C14.9463 63.859 14.4721 64.4368 13.8636 64.8434C13.2551 65.25 12.5398 65.467 11.808 65.467C10.8267 65.467 9.88559 65.0771 9.1917 64.3833C8.49782 63.6894 8.108 62.7483 8.108 61.767Z" fill="url(#paint0_linear_3_181)"/>
<path opacity="0.4" d="M198.898 28.215C198.717 28.1695 198.559 28.0566 198.458 27.8992C198.357 27.7418 198.32 27.5518 198.354 27.3679C198.388 27.184 198.491 27.02 198.642 26.9093C198.793 26.7987 198.98 26.7497 199.166 26.7724C199.351 26.7951 199.521 26.8877 199.641 27.0315C199.761 27.1752 199.821 27.3592 199.81 27.5459C199.799 27.7326 199.717 27.9081 199.581 28.0365C199.445 28.1649 199.265 28.2366 199.078 28.237C199.017 28.2371 198.957 28.2297 198.898 28.215ZM201.17 25.526C201.17 25.3123 201.233 25.1033 201.352 24.9256C201.47 24.7478 201.639 24.6092 201.836 24.5274C202.034 24.4455 202.251 24.424 202.46 24.4657C202.67 24.5073 202.863 24.6102 203.014 24.7613C203.165 24.9124 203.268 25.1049 203.309 25.3145C203.351 25.5241 203.329 25.7414 203.248 25.9387C203.166 26.1361 203.027 26.3048 202.849 26.4234C202.672 26.542 202.463 26.6052 202.249 26.605C201.963 26.6047 201.689 26.4909 201.486 26.2887C201.284 26.0864 201.17 25.8121 201.17 25.526ZM178.119 14C178.118 11.5067 178.856 9.06919 180.241 6.99565C181.625 4.92211 183.594 3.30572 185.897 2.35091C188.2 1.3961 190.735 1.14577 193.18 1.63157C195.626 2.11737 197.872 3.31749 199.635 5.08013C201.399 6.84277 202.6 9.08876 203.086 11.534C203.573 13.9793 203.324 16.514 202.37 18.8175C201.416 21.1211 199.8 23.09 197.728 24.4753C195.655 25.8606 193.217 26.6 190.724 26.6C187.382 26.5997 184.177 25.2723 181.813 22.9095C179.449 20.5468 178.121 17.3421 178.119 14ZM198.019 1.36898C198.019 1.09826 198.1 0.833673 198.25 0.608674C198.401 0.383675 198.615 0.208362 198.865 0.104899C199.115 0.00143626 199.39 -0.0255319 199.656 0.0274042C199.921 0.0803402 200.165 0.210804 200.356 0.402301C200.548 0.593799 200.678 0.837733 200.731 1.10327C200.784 1.3688 200.756 1.64401 200.653 1.8941C200.549 2.1442 200.374 2.35794 200.148 2.50833C199.923 2.65871 199.659 2.73898 199.388 2.73898C199.208 2.73898 199.03 2.70353 198.864 2.63467C198.698 2.56581 198.547 2.46488 198.42 2.33765C198.293 2.21042 198.192 2.05939 198.123 1.89318C198.054 1.72697 198.019 1.54884 198.019 1.36898Z" fill="url(#paint1_linear_3_181)"/>
<path d="M185.337 11.11H46.337C43.5756 11.11 41.337 13.3486 41.337 16.11V109.11C41.337 111.871 43.5756 114.11 46.337 114.11H185.337C188.098 114.11 190.337 111.871 190.337 109.11V16.11C190.337 13.3486 188.098 11.11 185.337 11.11Z" fill="#F6F2ED"/>
<path d="M185.337 11.86H46.337C43.9898 11.86 42.087 13.7628 42.087 16.11V109.11C42.087 111.457 43.9898 113.36 46.337 113.36H185.337C187.684 113.36 189.587 111.457 189.587 109.11V16.11C189.587 13.7628 187.684 11.86 185.337 11.86Z" stroke="#002C27" stroke-width="1.5"/>
<path d="M175.208 102.228H56.438C55.667 102.226 54.9281 101.919 54.3827 101.374C53.8373 100.829 53.5296 100.09 53.527 99.319V26.57C53.5291 25.7986 53.8365 25.0594 54.382 24.5139C54.9274 23.9685 55.6666 23.6611 56.438 23.659H175.208C175.979 23.6611 176.719 23.9685 177.264 24.5139C177.81 25.0594 178.117 25.7986 178.119 26.57V99.319C178.116 100.09 177.809 100.829 177.263 101.374C176.718 101.919 175.979 102.226 175.208 102.228Z" fill="#3C3C3C" stroke="#E0E1E2" stroke-width="0.283"/>
<path d="M134.713 32.986C134.55 32.8535 134.371 32.7454 134.174 32.6625C133.978 32.5796 133.781 32.5049 133.585 32.4383C133.389 32.3718 133.209 32.3029 133.045 32.2311C132.882 32.1593 132.751 32.0734 132.651 31.9736C132.551 31.8737 132.502 31.7441 132.502 31.5836C132.502 31.3956 132.576 31.2519 132.726 31.1527C132.875 31.0534 133.08 31.0032 133.34 31.0032C133.567 31.0032 133.77 31.0476 133.95 31.1363C134.13 31.2251 134.305 31.3629 134.477 31.5509L135.224 30.8047C135.019 30.5671 134.756 30.3732 134.435 30.2244C134.114 30.0749 133.754 30.0007 133.356 30.0007C132.979 30.0007 132.642 30.0673 132.343 30.1998C132.045 30.3324 131.809 30.5233 131.638 30.772C131.467 31.0207 131.381 31.3226 131.381 31.6758C131.381 31.9742 131.431 32.2217 131.53 32.4179C131.63 32.6141 131.761 32.7746 131.924 32.899C132.087 33.0234 132.267 33.1267 132.464 33.2102C132.66 33.2931 132.856 33.3667 133.052 33.4297C133.249 33.4934 133.429 33.564 133.592 33.6411C133.755 33.7187 133.887 33.8127 133.987 33.9231C134.087 34.034 134.136 34.1776 134.136 34.3545C134.136 34.5589 134.049 34.7195 133.875 34.8356C133.701 34.9518 133.467 35.0096 133.174 35.0096C132.847 35.0096 132.571 34.9477 132.344 34.8228C132.117 34.6984 131.918 34.5233 131.747 34.2962L131 35.0423C131.271 35.3629 131.574 35.6034 131.909 35.7634C132.243 35.9239 132.646 36.0039 133.116 36.0039C133.78 36.0039 134.303 35.8492 134.684 35.5398C135.066 35.2303 135.257 34.8047 135.257 34.2629C135.257 33.9587 135.207 33.703 135.108 33.4957C135.009 33.2884 134.877 33.1185 134.713 32.986Z" fill="#F6F2ED"/>
<path d="M137.888 30.0911L135.54 35.9209H136.718L137.135 34.8343H139.536L139.947 35.9209H141.15L138.81 30.0911H137.888ZM137.496 33.8896L138.343 31.6815L139.178 33.8896H137.496Z" fill="#F6F2ED"/>
<path d="M140.734 31.0947H142.593V35.9215H143.73V31.0947H145.589V30.0911H140.734V31.0947Z" fill="#F6F2ED"/>
<path d="M150.897 30.8664C150.623 30.5926 150.303 30.3801 149.938 30.2283C149.573 30.0765 149.174 30 148.743 30C148.317 30 147.921 30.0759 147.556 30.2283C147.191 30.3801 146.872 30.5932 146.598 30.8664C146.324 31.1403 146.112 31.4585 145.959 31.8205C145.807 32.1824 145.731 32.5742 145.731 32.994C145.731 33.4144 145.808 33.8079 145.963 34.1757C146.118 34.5436 146.332 34.8641 146.606 35.1379C146.88 35.4118 147.201 35.626 147.569 35.7807C147.937 35.9355 148.334 36.0131 148.76 36.0131C149.186 36.0131 149.58 35.9355 149.943 35.7807C150.305 35.626 150.623 35.4118 150.897 35.1379C151.171 34.8641 151.385 34.5447 151.54 34.1804C151.695 33.8155 151.772 33.4231 151.772 33.0028C151.772 32.583 151.695 32.19 151.54 31.8251C151.384 31.4596 151.17 31.1403 150.897 30.8664ZM150.374 34.0222C150.216 34.3153 149.999 34.5447 149.722 34.7105C149.445 34.8764 149.119 34.9593 148.743 34.9593C148.472 34.9593 148.221 34.9126 147.992 34.8186C147.762 34.7246 147.566 34.592 147.403 34.4204C147.239 34.2493 147.112 34.0414 147.021 33.7986C146.93 33.5551 146.884 33.2871 146.884 32.994C146.884 32.6069 146.963 32.2671 147.121 31.974C147.278 31.6815 147.497 31.4532 147.776 31.2897C148.055 31.1268 148.378 31.0451 148.743 31.0451C149.025 31.0451 149.279 31.0918 149.507 31.1858C149.733 31.2798 149.93 31.4141 150.096 31.5881C150.262 31.7621 150.389 31.9682 150.478 32.2058C150.566 32.4434 150.61 32.7062 150.61 32.994C150.61 33.3864 150.531 33.7291 150.374 34.0222Z" fill="#F6F2ED"/>
<path d="M156.29 34.8104C156.055 34.9096 155.774 34.9593 155.448 34.9593C155.177 34.9593 154.929 34.9126 154.705 34.8186C154.48 34.7246 154.286 34.5903 154.119 34.4163C153.953 34.2423 153.826 34.0362 153.738 33.7986C153.649 33.5609 153.605 33.2953 153.605 33.0022C153.605 32.7149 153.649 32.4504 153.738 32.2105C153.826 31.9699 153.953 31.7627 154.119 31.5887C154.285 31.4147 154.48 31.2821 154.705 31.1905C154.929 31.0994 155.176 31.0539 155.448 31.0539C155.758 31.0539 156.029 31.1035 156.261 31.2033C156.494 31.3026 156.689 31.441 156.85 31.6179L157.614 30.8542C157.343 30.5885 157.03 30.3801 156.676 30.2283C156.322 30.0765 155.912 30 155.448 30C155.016 30 154.619 30.0777 154.257 30.2324C153.894 30.3871 153.576 30.6002 153.303 30.8711C153.029 31.142 152.818 31.4596 152.672 31.8251C152.525 32.19 152.451 32.5824 152.451 33.0028C152.451 33.4231 152.525 33.8155 152.672 34.1804C152.818 34.5453 153.029 34.8647 153.303 35.1379C153.576 35.4118 153.896 35.6243 154.261 35.7767C154.626 35.9285 155.021 36.0044 155.447 36.0044C155.923 36.0044 156.341 35.9296 156.7 35.7807C157.06 35.6313 157.375 35.4211 157.646 35.1502L156.883 34.3871C156.723 34.5692 156.525 34.7105 156.29 34.8104Z" fill="#F6F2ED"/>
<path d="M162.095 32.4137H159.564V30.0911H158.435V35.9215H159.564V33.4085H162.095V35.9215H163.224V30.0911H162.095V32.4137Z" fill="#F6F2ED"/>
<path d="M165.547 30.0911H164.418V35.9209H165.547V30.0911Z" fill="#F6F2ED"/>
<path d="M170.742 30.9499C170.571 30.6761 170.337 30.4647 170.041 30.3153C169.746 30.1658 169.412 30.0911 169.041 30.0911H167.871H167.572H166.742V35.9209H167.871V33.7565H169.041C169.412 33.7565 169.745 33.6818 170.041 33.5323C170.337 33.3834 170.571 33.1721 170.742 32.8983C170.914 32.6244 171 32.2998 171 31.9238C170.999 31.5478 170.914 31.2232 170.742 30.9499ZM169.746 32.4172C169.663 32.5526 169.55 32.6565 169.406 32.7284C169.262 32.8002 169.102 32.8364 168.925 32.8364H167.871V31.0118H168.925C169.102 31.0118 169.262 31.048 169.406 31.1198C169.55 31.1916 169.663 31.2967 169.746 31.4351C169.829 31.5735 169.871 31.7364 169.871 31.9244C169.871 32.1176 169.829 32.2823 169.746 32.4172Z" fill="#F6F2ED"/>
<path d="M177.337 19.86H53.337C50.9898 19.86 49.087 21.7628 49.087 24.11V101.11C49.087 103.457 50.9898 105.36 53.337 105.36H177.337C179.684 105.36 181.587 103.457 181.587 101.11V24.11C181.587 21.7628 179.684 19.86 177.337 19.86Z" stroke="#002C27" stroke-width="1.5" stroke-dasharray="1.5 2"/>
<g clip-path="url(#clip1_3_181)">
<path d="M90.3415 48.5008H72.4785C71.1118 48.5008 70 49.6127 70 50.9793V63.8407C70 65.2073 71.1118 66.3192 72.4785 66.3192H90.3415C91.7082 66.3192 92.82 65.2073 92.82 63.8407V50.9793C92.82 49.6127 91.7082 48.5008 90.3415 48.5008ZM90.7211 57.0751H85.3175V54.5519C85.3175 54.3426 85.4878 54.1723 85.6971 54.1723H90.7211V57.0751ZM85.3175 57.7449H90.7211V60.6477H85.3175V57.7449ZM91.391 55.9586H92.1501V58.8614H91.391V55.9586ZM91.391 55.2888V52.386H92.1501V55.2888H91.391ZM90.7211 53.5025H85.6971C85.1185 53.5025 84.6477 53.9732 84.6477 54.5519V64.2203H78.1723V50.5997H90.3415C90.5508 50.5997 90.7211 50.77 90.7211 50.9793V53.5025ZM77.5025 57.0751H72.0989V54.1723H77.5025V57.0751ZM71.429 58.8614H70.6699V55.9586H71.429V58.8614ZM72.0989 57.7449H77.5025V60.6477H72.0989V57.7449ZM81.7449 49.9299V49.1707H87.863V49.9299H81.7449ZM81.0751 49.9299H74.957V49.1707H81.0751V49.9299ZM77.5025 50.5997V53.5025H72.0989V50.9793C72.0989 50.77 72.2692 50.5997 72.4785 50.5997H77.5025ZM71.429 55.2888H70.6699V52.386H71.429V55.2888ZM70.6699 59.5312H71.429V62.434H70.6699V59.5312ZM72.0989 61.3175H77.5025V64.2203H72.4785C72.2692 64.2203 72.0989 64.05 72.0989 63.8407V61.3175ZM81.0751 64.8901V65.6493H74.957V64.8901H81.0751ZM81.7449 64.8901H87.863V65.6493H81.7449V64.8901ZM85.3175 64.2203V61.3175H90.7211V63.8407C90.7211 64.05 90.5508 64.2203 90.3415 64.2203H85.3175ZM91.391 59.5312H92.1501V62.434H91.391V59.5312ZM92.1501 50.9793V51.7162H91.391V50.9793C91.391 50.4006 90.9202 49.9299 90.3415 49.9299H88.5329V49.1707H90.3415C91.3388 49.1707 92.1501 49.982 92.1501 50.9793ZM72.4785 49.1707H74.2871V49.9299H72.4785C71.8998 49.9299 71.429 50.4006 71.429 50.9793V51.7162H70.6699V50.9793C70.6699 49.982 71.4812 49.1707 72.4785 49.1707ZM70.6699 63.8407V63.1038H71.429V63.8407C71.429 64.4194 71.8998 64.8901 72.4785 64.8901H74.2871V65.6493H72.4785C71.4812 65.6493 70.6699 64.838 70.6699 63.8407ZM90.3415 65.6493H88.5329V64.8901H90.3415C90.9202 64.8901 91.391 64.4194 91.391 63.8407V63.1038H92.1501V63.8407C92.1501 64.838 91.3388 65.6493 90.3415 65.6493Z" fill="#F6F2ED"/>
</g>
<path d="M100.515 54.6601C100.515 54.6601 100.892 54.4883 101.133 54.7632C101.373 55.038 101.992 56.103 101.992 57.1679C101.992 58.2329 101.717 59.3665 101.442 59.7444C101.167 60.1223 100.892 60.1223 100.686 59.9849C100.48 59.8475 97.2853 57.4084 97.1135 57.3397C96.9417 57.271 96.873 57.4427 97.0448 58.3703C97.2166 59.2978 96.9417 59.5727 96.7012 59.607C96.4608 59.6414 95.7394 59.4352 95.705 57.5115C95.6707 55.5876 96.1859 55.2785 96.4264 55.2785C96.8783 55.2785 100.309 58.3759 100.549 58.336C100.755 58.3016 100.858 56.9961 100.446 55.9655C99.9994 54.8496 100.515 54.6601 100.515 54.6601ZM106.037 52.7363C107.191 55.0278 107.12 57.1946 107.111 57.4233C107.12 57.6225 107.191 59.7922 106.037 62.0837C106.037 62.0837 105.736 62.4272 105.29 62.2211C104.843 62.015 104.998 61.4654 104.998 61.4654C104.998 61.4654 105.933 59.6601 105.908 57.4427L105.908 57.4084C105.933 55.1908 104.998 53.3546 104.998 53.3546C104.998 53.3546 104.843 52.805 105.29 52.5989C105.736 52.3928 106.037 52.7363 106.037 52.7363ZM103.799 53.7669C104.74 55.4846 104.676 57.1946 104.667 57.4233C104.676 57.6225 104.74 59.2635 103.8 61.1202C103.8 61.1202 103.5 61.4637 103.053 61.2576C102.606 61.0515 102.761 60.5018 102.761 60.5018C102.761 60.5018 103.366 59.6414 103.464 57.4427L103.464 57.4084C103.4 55.2097 102.76 54.3853 102.76 54.3853C102.76 54.3853 102.605 53.8356 103.052 53.6295C103.498 53.4233 103.799 53.7669 103.799 53.7669Z" fill="#F6F2ED"/>
</g>
<defs>
<linearGradient id="paint0_linear_3_181" x1="34.065" y1="58.067" x2="34.065" y2="136.723" gradientUnits="userSpaceOnUse">
<stop stop-color="#00836A"/>
<stop offset="1" stop-color="#073E39"/>
</linearGradient>
<linearGradient id="paint1_linear_3_181" x1="190.725" y1="0.000976562" x2="190.725" y2="28.237" gradientUnits="userSpaceOnUse">
<stop stop-color="#00836A"/>
<stop offset="1" stop-color="#073E39"/>
</linearGradient>
<clipPath id="clip0_3_181">
<rect width="203.329" height="136.723" fill="white"/>
</clipPath>
<clipPath id="clip1_3_181">
<rect width="22.82" height="22.82" fill="white" transform="translate(70 46)"/>
</clipPath>
</defs>
</svg>
