<svg width="102" height="13" viewBox="0 0 102 13" fill="none" xmlns="http://www.w3.org/2000/svg">
<path d="M24.5912 6.34491C24.2448 6.06327 23.8624 5.83375 23.4452 5.65757C23.0281 5.48139 22.6097 5.32258 22.1938 5.18114C21.7766 5.0397 21.3942 4.8933 21.0466 4.7407C20.7002 4.58809 20.4209 4.40571 20.2086 4.19355C19.9963 3.9814 19.8907 3.70596 19.8907 3.36477C19.8907 2.96527 20.0496 2.66006 20.3675 2.44914C20.6853 2.23822 21.1198 2.13152 21.6723 2.13152C22.154 2.13152 22.5861 2.22582 22.9685 2.4144C23.3509 2.60299 23.7233 2.89579 24.0883 3.29529L25.675 1.70969C25.2405 1.20473 24.6805 0.792818 23.9989 0.476442C23.3173 0.158825 22.5526 0.00125885 21.7058 0.00125885C20.9063 0.00125885 20.1899 0.142698 19.5543 0.424335C18.9198 0.705972 18.4195 1.11168 18.0557 1.64021C17.692 2.16874 17.5095 2.81018 17.5095 3.5608C17.5095 4.19479 17.615 4.72085 17.8261 5.13772C18.0384 5.55459 18.3165 5.89578 18.6641 6.16005C19.0105 6.42431 19.3929 6.64392 19.81 6.82134C20.2272 6.99751 20.6443 7.15384 21.0615 7.28783C21.4786 7.42307 21.861 7.5732 22.2087 7.73697C22.555 7.90198 22.8344 8.10173 23.0467 8.33622C23.259 8.57195 23.3645 8.87716 23.3645 9.25309C23.3645 9.68733 23.1795 10.0285 22.8096 10.2754C22.4396 10.5223 21.943 10.6451 21.3197 10.6451C20.6257 10.6451 20.0385 10.5136 19.5555 10.2481C19.0738 9.98386 18.6504 9.61165 18.2867 9.12902L16.7 10.7146C17.2761 11.3958 17.9204 11.9069 18.6306 12.2469C19.342 12.5881 20.1974 12.758 21.1968 12.758C22.6072 12.758 23.7184 12.4293 24.5291 11.7717C25.341 11.1141 25.7458 10.2097 25.7458 9.0583C25.7458 8.4119 25.6402 7.86848 25.4292 7.42803C25.2181 6.98759 24.9388 6.62655 24.5912 6.34491Z" fill="black"/>
<path d="M31.3376 0.193542L26.3467 12.5818H28.8508L29.7361 10.2729H34.8387L35.7115 12.5818H38.2691L33.2955 0.193542H31.3376ZM30.5046 8.26548L32.3035 3.57319L34.0777 8.26548H30.5046Z" fill="black"/>
<path d="M37.3851 2.32629H41.3356V12.5831H43.7517V2.32629H47.7022V0.193542H37.3851V2.32629Z" fill="black"/>
<path d="M58.9802 1.84118C58.398 1.2593 57.7188 0.80769 56.9429 0.48511C56.1669 0.162531 55.3202 0 54.404 0C53.4976 0 52.6571 0.16129 51.8824 0.48511C51.1065 0.80769 50.4273 1.26054 49.8463 1.84118C49.264 2.42307 48.8121 3.09924 48.4881 3.86847C48.164 4.6377 48.0026 5.4702 48.0026 6.36226C48.0026 7.25556 48.1678 8.09179 48.4968 8.87342C48.8258 9.65506 49.2814 10.3362 49.8637 10.9181C50.446 11.5 51.1276 11.9553 51.9097 12.2841C52.6919 12.6129 53.5349 12.7779 54.44 12.7779C55.345 12.7779 56.1831 12.6129 56.9528 12.2841C57.7226 11.9553 58.3992 11.5 58.9815 10.9181C59.5625 10.3362 60.0181 9.65754 60.3472 8.88335C60.6762 8.10791 60.8413 7.27417 60.8413 6.38087C60.8413 5.48881 60.6762 4.65383 60.3472 3.8784C60.0169 3.10173 59.5613 2.42307 58.9802 1.84118ZM57.8691 8.54712C57.5339 9.16995 57.072 9.65754 56.4848 10.0099C55.8963 10.3622 55.2035 10.5384 54.404 10.5384C53.8279 10.5384 53.2953 10.4392 52.8074 10.2394C52.3194 10.0397 51.9023 9.75803 51.5559 9.39327C51.2083 9.02975 50.9389 8.58806 50.7439 8.07193C50.5503 7.55457 50.4534 6.98509 50.4534 6.36226C50.4534 5.53968 50.621 4.8176 50.9562 4.19477C51.2915 3.57319 51.7558 3.08808 52.3492 2.74069C52.9427 2.39453 53.628 2.22084 54.404 2.22084C55.0036 2.22084 55.5437 2.32009 56.0266 2.51984C56.5084 2.71959 56.9255 3.00495 57.2781 3.37468C57.6307 3.74441 57.9013 4.18237 58.0901 4.68733C58.2775 5.19229 58.3719 5.7506 58.3719 6.36226C58.3719 7.19601 58.2043 7.92429 57.8691 8.54712Z" fill="black"/>
<path d="M70.442 10.2221C69.9417 10.433 69.3457 10.5384 68.6517 10.5384C68.0757 10.5384 67.5493 10.4392 67.0725 10.2394C66.5958 10.0397 66.1823 9.75431 65.8285 9.38459C65.4759 9.01486 65.2053 8.57689 65.0178 8.07193C64.8291 7.56697 64.7347 7.00246 64.7347 6.37963C64.7347 5.76921 64.8291 5.20718 65.0178 4.69726C65.2053 4.18609 65.4759 3.74564 65.8285 3.37592C66.1811 3.00619 66.5958 2.72456 67.0725 2.52977C67.5493 2.33622 68.0744 2.23945 68.6517 2.23945C69.3097 2.23945 69.8858 2.34491 70.3799 2.55707C70.8741 2.76798 71.29 3.06202 71.6314 3.43795L73.2541 1.81513C72.678 1.25062 72.0138 0.80769 71.2614 0.485111C70.5091 0.162531 69.6387 0 68.6517 0C67.7342 0 66.8912 0.165013 66.1203 0.493796C65.3505 0.822579 64.6739 1.27543 64.0928 1.85111C63.5106 2.42679 63.0636 3.10173 62.752 3.8784C62.4404 4.65383 62.2839 5.48757 62.2839 6.38087C62.2839 7.27417 62.4404 8.10791 62.752 8.88335C63.0636 9.65878 63.5106 10.3374 64.0928 10.9181C64.6739 11.5 65.353 11.9516 66.1289 12.2754C66.9049 12.598 67.7454 12.7593 68.6505 12.7593C69.6611 12.7593 70.5488 12.6005 71.3123 12.2841C72.0771 11.9665 72.7475 11.5198 73.3236 10.9441L71.7009 9.32255C71.362 9.70965 70.9411 10.0099 70.442 10.2221Z" fill="black"/>
<path d="M82.7766 5.12901H77.3983V0.193542H74.9997V12.5831H77.3983V7.24315H82.7766V12.5831H85.1753V0.193542H82.7766V5.12901Z" fill="black"/>
<path d="M90.1128 0.193542H87.7142V12.5818H90.1128V0.193542Z" fill="black"/>
<path d="M101.152 2.0186C100.789 1.43672 100.291 0.987584 99.6626 0.669967C99.0344 0.35235 98.3255 0.193542 97.5372 0.193542H95.0504H94.4159H92.6517V12.5818H95.0504V7.9826H97.5372C98.3255 7.9826 99.0332 7.82379 99.6626 7.50617C100.292 7.1898 100.789 6.74067 101.152 6.15879C101.516 5.5769 101.7 4.88708 101.7 4.08807C101.699 3.28907 101.516 2.59924 101.152 2.0186ZM99.0357 5.13645C98.8594 5.42429 98.6185 5.64514 98.3131 5.79774C98.0064 5.95035 97.6663 6.02727 97.2901 6.02727H95.0504V2.15011H97.2901C97.6663 2.15011 98.0077 2.22703 98.3131 2.37964C98.6185 2.53224 98.8594 2.75557 99.0357 3.04961C99.212 3.34366 99.3001 3.68981 99.3001 4.08931C99.3001 4.49998 99.212 4.84985 99.0357 5.13645Z" fill="black"/>
<path d="M6 12.2919C9.30829 12.2919 12 9.60201 12 6.29596C12 2.9899 9.30829 0.300003 6 0.300003C2.69171 0.300003 0 2.9899 0 6.29596C0 9.60201 2.69106 12.2919 6 12.2919ZM8.45142 11.3793V7.70239C8.45142 7.39236 8.70337 7.14059 9.0136 7.14059H11.5842C11.3018 9.01044 10.0978 10.5826 8.45142 11.3793ZM6 0.652745C9.11399 0.652745 11.647 3.18407 11.647 6.29596C11.647 6.46165 11.6392 6.6254 11.6256 6.7872H9.0136C8.50907 6.7872 8.09845 7.19755 8.09845 7.70174V11.5346C7.44948 11.7948 6.74158 11.9385 6 11.9385C2.88601 11.9385 0.35298 9.4072 0.35298 6.29531C0.35298 3.18342 2.88601 0.652745 6 0.652745ZM3.12824 6.06684C3.67746 6.08561 4.29987 6.10696 4.59909 6.10955C4.75518 6.11085 4.9728 6.25842 5.13212 6.3665C5.15544 6.38204 5.17811 6.39757 5.19948 6.41181C5.2921 6.4733 5.49028 6.64352 5.52785 6.91147C5.52332 8.14833 5.52785 10.7347 5.52785 10.9405C5.52785 10.9586 5.52915 10.9761 5.53109 10.9936C5.53174 10.9987 5.53238 11.0039 5.53368 11.0091C5.56671 11.2473 5.77072 11.4304 6.01813 11.4304C6.25389 11.4304 6.45078 11.2635 6.49741 11.0421L7.29857 11.0428V10.2823H6.95661V9.92757H7.29857V9.07064H6.50777C6.50907 8.86093 6.50971 8.68165 6.50842 8.57227C6.50583 8.33085 6.52396 7.71533 6.53368 7.3846C6.53562 7.31081 6.53756 7.24998 6.53886 7.20855C6.54016 7.14965 6.54145 7.10176 6.54275 7.06098C6.54534 6.94254 6.54663 6.88299 6.5557 6.7406C6.56282 6.63252 6.56865 6.62281 6.66839 6.47071C6.73769 6.38268 7.10622 6.15162 7.37953 6.04095C7.64896 5.95486 9.63407 5.81441 9.84456 5.81183C10.1062 5.81183 10.274 5.57818 10.4035 5.3497C10.489 5.19955 10.5751 5.01249 10.601 4.92318C10.638 4.79438 10.6049 4.67982 10.511 4.45523C10.4475 4.30313 10.3653 4.12644 10.3076 4.00476C9.98575 3.32969 9.93005 3.28762 9.87111 3.24232C9.85946 3.23326 9.84521 3.22355 9.82966 3.21449C9.82966 3.19442 9.82837 3.17371 9.82642 3.153C9.79987 2.90705 9.57254 2.79249 9.22927 2.64622C8.95466 2.52907 8.81995 2.487 8.74806 2.47276C8.74352 2.45852 8.73899 2.44558 8.7364 2.43522C8.73446 2.33555 8.69171 2.20092 8.5136 2.08507C8.46244 2.05206 8.39637 2.01581 8.31153 1.97569C8.17616 1.91096 8.01813 1.84624 7.92358 1.81064C7.9022 1.80287 7.84585 1.77893 7.78562 1.75368C7.19624 1.50644 6.96891 1.43072 6.81153 1.43072C6.69819 1.43072 6.38666 1.45855 6.10168 1.49932C5.54987 1.57893 5.35233 1.66113 5.25777 1.85077C5.21891 1.92844 5.1956 2.02552 5.17422 2.47082C5.0421 2.18798 4.9158 1.93944 4.85039 1.8566C4.78303 1.77051 4.68005 1.72197 4.57254 1.72197C4.55699 1.72197 4.54145 1.72327 4.52591 1.72521L3.52396 1.85789C3.45013 1.8676 3.38148 1.89996 3.32772 1.95109L2.0136 3.19183C1.95855 3.24361 1.92163 3.31222 1.90803 3.3873C1.89832 3.43325 1.83938 3.62224 1.78756 3.78858C1.37111 5.12511 1.31412 5.44032 1.44948 5.66102C1.64443 5.98011 1.86464 6.0403 2.20272 6.0403C2.31282 6.039 2.7092 6.0526 3.12824 6.06684ZM6.15609 10.9398C6.15609 11.0156 6.09456 11.0771 6.01878 11.0771C5.94301 11.0771 5.88148 11.0156 5.88148 10.9398V10.4706C5.88148 10.4091 5.88148 10.3444 5.88148 10.2771C5.88148 9.68745 5.88148 8.91918 5.88148 8.91918H6.15609C6.15609 8.91918 6.15609 9.68809 6.15609 10.2771V10.9398ZM6.15544 8.5755C6.15609 8.63699 6.15609 8.72048 6.15609 8.81951H5.88148C5.88277 8.54703 5.88018 8.27519 5.88148 8.02406H6.16321C6.15738 8.24542 6.15415 8.45383 6.15544 8.5755ZM6.20337 6.71795C6.19041 6.9173 6.19236 6.96455 6.18588 7.1982C6.18264 7.32441 6.17293 7.62602 6.16516 7.92504H5.88083V6.91924C5.88083 6.89141 5.87889 6.79044 5.85816 6.73542C5.89573 6.74902 5.92487 6.75355 5.93782 6.75355C5.98251 6.75355 6.09003 6.72766 6.20402 6.69659C6.20402 6.70436 6.20337 6.71083 6.20337 6.71795ZM7.03497 9.33341V9.6635H6.69301V10.545H7.03497V10.7787H6.50777C6.50712 10.7638 6.50777 9.33406 6.50777 9.33406H7.03497V9.33341ZM9.60428 3.50768C9.62371 3.50768 9.64184 3.51092 9.65738 3.52257C9.71114 3.56399 10.2876 4.73742 10.2623 4.82609C10.237 4.91476 9.98705 5.45908 9.84456 5.45908C9.70207 5.45908 7.5272 5.60148 7.25194 5.71215C7.04728 5.79435 6.72474 5.96975 6.52655 6.12573L6.70078 5.84095L7.89637 4.57303L9.5272 3.51545C9.55117 3.51415 9.57837 3.50768 9.60428 3.50768ZM8.63601 2.82809C8.64896 2.82162 8.66192 2.81773 8.67228 2.81773C8.72604 2.81773 9.46632 3.10252 9.47539 3.19119C9.48251 3.25591 9.4579 3.36917 9.45855 3.44166L7.83161 4.49601L6.62435 5.77623L6.2772 6.34191L6.49288 5.64355L7.55117 4.02482L8.63601 2.82809ZM6.81088 1.78346C6.98187 1.78346 7.67228 2.09348 7.79857 2.14073C7.96762 2.20416 8.39508 2.38279 8.38277 2.44622C8.37241 2.498 8.46373 2.72453 8.50194 2.82874L7.47539 3.96139L6.40285 5.60148L6.14378 6.44094C6.11788 6.44805 6.09262 6.45517 6.06865 6.461L6.12759 5.96328L6.43264 3.94974L6.85946 1.79317L6.81088 1.78346ZM5.57319 2.00805C5.63212 1.8909 6.49741 1.79834 6.76036 1.78475L6.33484 3.93227L6.02915 5.94969L5.96567 6.48559C5.96438 6.48624 5.96244 6.48624 5.96114 6.48689L5.94624 5.30116L5.48251 3.90249C5.49482 3.7724 5.51101 2.13167 5.57319 2.00805ZM4.57254 2.07342C4.68329 2.21387 5.16516 3.27921 5.27915 3.61447C5.29275 3.65525 5.30635 3.69085 5.31865 3.72321L5.8478 5.31734L5.8614 6.38916L5.63083 5.43125L4.79016 3.90185L3.62565 2.19833L4.57254 2.07342ZM3.53368 2.2404L4.70402 3.95168L5.53692 5.46685L5.75389 6.36715L5.39313 5.65455L3.53562 4.06754L3.53174 4.0643L2.29404 3.40995L3.53368 2.2404ZM1.75065 5.47526C1.64702 5.30569 2.15609 3.82741 2.24417 3.49603L3.47604 4.1465L5.31412 5.71733L5.60492 6.29142C5.53692 6.22088 5.46438 6.16262 5.39572 6.11667C5.18458 5.97622 4.89443 5.75811 4.60233 5.75552C4.06995 5.75099 2.46373 5.68497 2.20207 5.68497C1.94171 5.68626 1.8614 5.65584 1.75065 5.47526ZM3.90803 6.7872H2.96632C2.4443 6.7872 2.01943 7.21179 2.01943 7.73346V9.04345C2.01943 9.56512 2.4443 9.9897 2.96632 9.9897H3.90803C4.43005 9.9897 4.85492 9.56512 4.85492 9.04345V7.73346C4.85492 7.21179 4.43005 6.7872 3.90803 6.7872ZM4.50129 9.04345C4.50129 9.3703 4.2351 9.63696 3.90738 9.63696H2.96567C2.6386 9.63696 2.37176 9.37095 2.37176 9.04345V7.73346C2.37176 7.4066 2.63795 7.13994 2.96567 7.13994H3.90738C4.23446 7.13994 4.50129 7.40596 4.50129 7.73346V9.04345Z" fill="#231F20"/>
</svg>
