<svg width="157" height="123" viewBox="0 0 157 123" fill="none" xmlns="http://www.w3.org/2000/svg">
<g clip-path="url(#clip0_3_249)">
<path opacity="0.4" d="M20.6135 77.2129C24.6905 77.2129 28.6759 78.42 32.0658 80.6816C35.4556 82.9431 38.0977 86.1576 39.6579 89.9184C41.2181 93.6792 41.6263 97.8176 40.8309 101.81C40.0355 105.803 38.0723 109.47 35.1895 112.348C32.3066 115.227 28.6336 117.187 24.635 117.981C20.6364 118.775 16.4917 118.368 12.7251 116.81C8.95843 115.252 5.73904 112.614 3.474 109.229C1.20896 105.845 0 101.865 0 97.7947C0 92.3361 2.17177 87.101 6.03756 83.2412C9.90334 79.3813 15.1465 77.2129 20.6135 77.2129Z" fill="url(#paint0_linear_3_249)"/>
<path opacity="0.4" d="M16.6848 123C17.0343 123 17.3759 122.896 17.6664 122.703C17.957 122.509 18.1834 122.233 18.3172 121.911C18.4509 121.589 18.4859 121.234 18.4177 120.892C18.3495 120.549 18.1813 120.235 17.9342 119.988C17.6871 119.742 17.3722 119.574 17.0295 119.506C16.6868 119.438 16.3315 119.472 16.0087 119.606C15.6858 119.739 15.4099 119.966 15.2157 120.256C15.0216 120.546 14.918 120.887 14.918 121.236C14.918 121.704 15.1041 122.152 15.4355 122.483C15.7668 122.814 16.2162 123 16.6848 123Z" fill="#F9F4F0"/>
<path opacity="0.4" d="M22.3027 122.523C22.542 122.523 22.7759 122.453 22.9749 122.32C23.1738 122.187 23.3287 121.998 23.4201 121.777C23.5114 121.556 23.535 121.313 23.4879 121.079C23.4408 120.845 23.3251 120.63 23.1555 120.461C22.9859 120.292 22.7699 120.178 22.5351 120.132C22.3002 120.086 22.057 120.111 21.8362 120.203C21.6154 120.295 21.4269 120.451 21.2948 120.65C21.1626 120.849 21.0927 121.083 21.0938 121.322C21.0952 121.641 21.2233 121.947 21.4498 122.172C21.6764 122.397 21.983 122.523 22.3027 122.523Z" fill="#F9F4F0"/>
<path opacity="0.4" d="M7.14549 79.9452C7.58837 79.9452 8.02131 79.8141 8.38955 79.5684C8.75779 79.3228 9.0448 78.9736 9.21429 78.565C9.38377 78.1565 9.42811 77.707 9.34171 77.2733C9.25531 76.8396 9.04204 76.4412 8.72888 76.1285C8.41571 75.8158 8.01672 75.6029 7.58235 75.5166C7.14798 75.4303 6.69774 75.4746 6.28857 75.6438C5.8794 75.813 5.52968 76.0996 5.28363 76.4673C5.03758 76.835 4.90625 77.2672 4.90625 77.7094C4.90625 78.3024 5.14217 78.8711 5.56211 79.2904C5.98205 79.7097 6.55161 79.9452 7.14549 79.9452Z" fill="#F9F4F0"/>
<path opacity="0.4" d="M145.908 29.3854C152.034 29.3854 157.001 24.427 157.001 18.3104C157.001 12.1938 152.034 7.23535 145.908 7.23535C139.782 7.23535 134.816 12.1938 134.816 18.3104C134.816 24.427 139.782 29.3854 145.908 29.3854Z" fill="url(#paint1_linear_3_249)"/>
<path opacity="0.4" d="M156.05 27.4863C156.238 27.4863 156.422 27.542 156.578 27.6462C156.734 27.7505 156.856 27.8987 156.928 28.0721C157 28.2455 157.019 28.4363 156.982 28.6204C156.945 28.8044 156.855 28.9735 156.722 29.1062C156.589 29.2389 156.42 29.3293 156.235 29.3659C156.051 29.4025 155.86 29.3838 155.686 29.3119C155.513 29.2401 155.364 29.1185 155.26 28.9624C155.155 28.8064 155.1 28.6229 155.1 28.4352C155.1 28.1836 155.2 27.9422 155.378 27.7643C155.556 27.5863 155.798 27.4863 156.05 27.4863Z" fill="#F9F4F0"/>
<path opacity="0.4" d="M153.885 30.3289C153.854 30.4536 153.787 30.5663 153.692 30.6527C153.596 30.7392 153.477 30.7954 153.35 30.8144C153.223 30.8334 153.093 30.8143 152.976 30.7595C152.86 30.7047 152.762 30.6166 152.696 30.5064C152.63 30.3962 152.598 30.2689 152.604 30.1405C152.61 30.0121 152.654 29.8884 152.731 29.785C152.807 29.6817 152.913 29.6034 153.034 29.5599C153.155 29.5165 153.286 29.5099 153.411 29.541C153.579 29.5827 153.723 29.6891 153.812 29.8369C153.901 29.9847 153.927 30.1616 153.885 30.3289Z" fill="#F9F4F0"/>
<path opacity="0.4" d="M153.535 8.41408C153.296 8.41408 153.062 8.34328 152.863 8.21065C152.665 8.07802 152.51 7.88951 152.418 7.66895C152.327 7.44839 152.303 7.2057 152.349 6.97156C152.396 6.73741 152.511 6.52234 152.68 6.35353C152.849 6.18473 153.065 6.06977 153.299 6.02319C153.534 5.97662 153.777 6.00052 153.998 6.09188C154.219 6.18324 154.407 6.33795 154.54 6.53644C154.673 6.73494 154.744 6.96831 154.744 7.20704C154.744 7.52716 154.617 7.83418 154.39 8.06054C154.163 8.28691 153.856 8.41408 153.535 8.41408Z" fill="#F9F4F0"/>
<path d="M140.916 15.7695H19.1027C16.5348 15.7695 14.4531 17.848 14.4531 20.412V101.518C14.4531 104.082 16.5348 106.161 19.1027 106.161H140.916C143.484 106.161 145.566 104.082 145.566 101.518V20.412C145.566 17.848 143.484 15.7695 140.916 15.7695Z" fill="#F6F2ED"/>
<path d="M140.916 16.4658H19.1025C16.9198 16.4658 15.1504 18.2325 15.1504 20.4119V101.518C15.1504 103.698 16.9198 105.464 19.1025 105.464H140.916C143.099 105.464 144.868 103.698 144.868 101.518V20.4119C144.868 18.2325 143.099 16.4658 140.916 16.4658Z" stroke="#272421" stroke-width="1.5"/>
<path d="M132.253 95.8254H27.7416C27.0627 95.8237 26.412 95.5536 25.932 95.0743C25.4519 94.5949 25.1814 93.9453 25.1797 93.2674V29.3529C25.1814 28.675 25.4519 28.0254 25.932 27.546C26.412 27.0667 27.0627 26.7966 27.7416 26.7949H132.253C132.932 26.7966 133.583 27.0667 134.063 27.546C134.543 28.0254 134.814 28.675 134.815 29.3529V93.2674C134.814 93.9453 134.543 94.5949 134.063 95.0743C133.583 95.5536 132.932 95.8237 132.253 95.8254Z" fill="#3C3C3C" stroke="#F6F2ED" stroke-width="0.283" stroke-miterlimit="10"/>
<path d="M133.877 23.4951H25.2627C23.08 23.4951 21.3105 25.2618 21.3105 27.4412V94.5943C21.3105 96.7736 23.08 98.5403 25.2627 98.5403H133.877C136.06 98.5403 137.829 96.7736 137.829 94.5943V27.4412C137.829 25.2618 136.06 23.4951 133.877 23.4951Z" stroke="#272421" stroke-width="1.5" stroke-dasharray="1.5 2"/>
<path d="M19.828 0.75H19.8279C10.9483 0.75 3.75 7.94832 3.75 16.8279C3.75 25.7075 10.9483 32.9058 19.8279 32.9058H19.828C28.7076 32.9058 35.9059 25.7075 35.9059 16.8279C35.9059 7.94832 28.7076 0.75 19.828 0.75Z" fill="url(#paint2_linear_3_249)"/>
<path d="M19.828 0.75H19.8279C10.9483 0.75 3.75 7.94832 3.75 16.8279C3.75 25.7075 10.9483 32.9058 19.8279 32.9058H19.828C28.7076 32.9058 35.9059 25.7075 35.9059 16.8279C35.9059 7.94832 28.7076 0.75 19.828 0.75Z" stroke="#F9F4F0" stroke-width="1.5"/>
<path d="M24.9613 12L17.3384 19.323L13.8377 15.7232L12 17.4202L16.3873 21.9331C16.503 22.0522 16.642 22.1476 16.7961 22.2137C16.9501 22.2798 17.1161 22.3154 17.2844 22.3182H17.3055C17.6379 22.318 17.9568 22.1903 18.1933 21.9628L26.7403 13.7565L24.9613 12Z" fill="#F6F2ED"/>
<g clip-path="url(#clip1_3_249)">
<path d="M59.0061 48.2137H43.1939C41.9842 48.2137 41 49.1979 41 50.4076V61.7924C41 63.0021 41.9842 63.9863 43.1939 63.9863H59.0061C60.2158 63.9863 61.2 63.0021 61.2 61.7924V50.4076C61.2 49.1979 60.2158 48.2137 59.0061 48.2137ZM59.3421 55.8035H54.5589V53.5701C54.5589 53.3848 54.7096 53.2341 54.8949 53.2341H59.3421V55.8035ZM54.5589 56.3965H59.3421V58.9659H54.5589V56.3965ZM59.935 54.8153H60.607V57.3847H59.935V54.8153ZM59.935 54.2223V51.6528H60.607V54.2223H59.935ZM59.3421 52.6411H54.8949C54.3827 52.6411 53.9659 53.0578 53.9659 53.5701V62.1284H48.2341V50.0716H59.0061C59.1913 50.0716 59.3421 50.2224 59.3421 50.4076V52.6411ZM47.6411 55.8035H42.8579V53.2341H47.6411V55.8035ZM42.265 57.3847H41.593V54.8153H42.265V57.3847ZM42.8579 56.3965H47.6411V58.9659H42.8579V56.3965ZM51.3965 49.4787V48.8067H56.8121V49.4787H51.3965ZM50.8035 49.4787H45.3879V48.8067H50.8035V49.4787ZM47.6411 50.0716V52.6411H42.8579V50.4076C42.8579 50.2224 43.0087 50.0716 43.1939 50.0716H47.6411ZM42.265 54.2223H41.593V51.6528H42.265V54.2223ZM41.593 57.9777H42.265V60.5472H41.593V57.9777ZM42.8579 59.5589H47.6411V62.1284H43.1939C43.0087 62.1284 42.8579 61.9776 42.8579 61.7924V59.5589ZM50.8035 62.7213V63.3933H45.3879V62.7213H50.8035ZM51.3965 62.7213H56.8121V63.3933H51.3965V62.7213ZM54.5589 62.1284V59.5589H59.3421V61.7924C59.3421 61.9776 59.1913 62.1284 59.0061 62.1284H54.5589ZM59.935 57.9777H60.607V60.5472H59.935V57.9777ZM60.607 50.4076V51.0599H59.935V50.4076C59.935 49.8954 59.5183 49.4787 59.0061 49.4787H57.4051V48.8067H59.0061C59.8889 48.8067 60.607 49.5248 60.607 50.4076ZM43.1939 48.8067H44.7949V49.4787H43.1939C42.6817 49.4787 42.265 49.8954 42.265 50.4076V51.0599H41.593V50.4076C41.593 49.5248 42.3111 48.8067 43.1939 48.8067ZM41.593 61.7924V61.1401H42.265V61.7924C42.265 62.3046 42.6817 62.7213 43.1939 62.7213H44.7949V63.3933H43.1939C42.3111 63.3933 41.593 62.6752 41.593 61.7924ZM59.0061 63.3933H57.4051V62.7213H59.0061C59.5183 62.7213 59.935 62.3046 59.935 61.7924V61.1401H60.607V61.7924C60.607 62.6752 59.8889 63.3933 59.0061 63.3933Z" fill="#F6F2ED"/>
</g>
<path d="M68.3073 53.6658C68.3073 53.6658 68.6418 53.5138 68.8547 53.757C69.0675 54.0003 69.6149 54.943 69.6149 55.8857C69.6149 56.8284 69.3716 57.8319 69.1284 58.1664C68.8851 58.5009 68.6418 58.5009 68.4593 58.3793C68.2769 58.2577 65.4488 56.0986 65.2968 56.0378C65.1447 55.9769 65.0839 56.129 65.2359 56.95C65.388 57.7711 65.1447 58.0144 64.9318 58.0448C64.719 58.0752 64.0804 57.8927 64.05 56.1898C64.0196 54.4869 64.4757 54.2132 64.6886 54.2132C65.0885 54.2132 68.1256 56.955 68.3377 56.9196C68.5202 56.8892 68.6114 55.7337 68.2465 54.8214C67.8513 53.8336 68.3073 53.6658 68.3073 53.6658ZM73.1956 51.9629C74.2171 53.9913 74.1547 55.9093 74.1466 56.1117C74.1547 56.2881 74.2171 58.2087 73.1956 60.2371C73.1956 60.2371 72.9295 60.5412 72.5342 60.3587C72.1389 60.1763 72.2757 59.6898 72.2757 59.6898C72.2757 59.6898 73.1035 58.0917 73.0816 56.129L73.082 56.0986C73.1035 54.1356 72.2757 52.5102 72.2757 52.5102C72.2757 52.5102 72.1389 52.0237 72.5342 51.8412C72.9295 51.6588 73.1956 51.9629 73.1956 51.9629ZM71.2145 52.8752C72.0477 54.3956 71.9912 55.9093 71.983 56.1117C71.9912 56.2881 72.0477 57.7407 71.2156 59.3842C71.2156 59.3842 70.9496 59.6883 70.5542 59.5059C70.1589 59.3234 70.2958 58.8369 70.2958 58.8369C70.2958 58.8369 70.8313 58.0752 70.918 56.129L70.9184 56.0986C70.8617 54.1523 70.2946 53.4225 70.2946 53.4225C70.2946 53.4225 70.1578 52.936 70.5531 52.7535C70.9485 52.5711 71.2145 52.8752 71.2145 52.8752Z" fill="#F6F2ED"/>
<path d="M92.7135 35.986C92.5505 35.8535 92.3705 35.7454 92.1742 35.6625C91.9779 35.5796 91.781 35.5049 91.5853 35.4383C91.389 35.3718 91.209 35.3029 91.0455 35.2311C90.8824 35.1593 90.751 35.0734 90.6511 34.9736C90.5512 34.8737 90.5015 34.7441 90.5015 34.5836C90.5015 34.3956 90.5763 34.2519 90.7259 34.1527C90.8754 34.0534 91.0799 34.0032 91.3399 34.0032C91.5666 34.0032 91.7699 34.0476 91.9499 34.1363C92.1298 34.2251 92.3051 34.3629 92.4769 34.5509L93.2235 33.8047C93.019 33.5671 92.7556 33.3732 92.4348 33.2244C92.114 33.0749 91.7541 33.0007 91.3557 33.0007C90.9794 33.0007 90.6423 33.0673 90.3432 33.1998C90.0446 33.3324 89.8092 33.5233 89.638 33.772C89.4668 34.0207 89.3809 34.3226 89.3809 34.6758C89.3809 34.9742 89.4306 35.2217 89.5299 35.4179C89.6298 35.6141 89.7607 35.7746 89.9243 35.899C90.0873 36.0234 90.2672 36.1267 90.4635 36.2102C90.6599 36.2931 90.8562 36.3667 91.0525 36.4297C91.2488 36.4934 91.4287 36.564 91.5923 36.6411C91.7553 36.7187 91.8868 36.8127 91.9867 36.9231C92.0866 37.034 92.1362 37.1776 92.1362 37.3545C92.1362 37.5589 92.0492 37.7195 91.8751 37.8356C91.701 37.9518 91.4673 38.0096 91.174 38.0096C90.8474 38.0096 90.571 37.9477 90.3438 37.8228C90.1171 37.6984 89.9179 37.5233 89.7467 37.2962L89 38.0423C89.2711 38.3629 89.5743 38.6034 89.9085 38.7634C90.2433 38.9239 90.6458 39.0039 91.1161 39.0039C91.7799 39.0039 92.3028 38.8492 92.6843 38.5398C93.0664 38.2303 93.2568 37.8047 93.2568 37.2629C93.2568 36.9587 93.2072 36.703 93.1079 36.4957C93.0085 36.2884 92.8771 36.1185 92.7135 35.986Z" fill="#F6F2ED"/>
<path d="M95.8883 33.0911L93.5396 38.9209H94.718L95.1346 37.8343H97.5359L97.9466 38.9209H99.1502L96.8097 33.0911H95.8883ZM95.4963 36.8896L96.3428 34.6815L97.1777 36.8896H95.4963Z" fill="#F6F2ED"/>
<path d="M98.7342 34.0947H100.593V38.9215H101.73V34.0947H103.589V33.0911H98.7342V34.0947Z" fill="#F6F2ED"/>
<path d="M108.897 33.8664C108.623 33.5926 108.303 33.3801 107.938 33.2283C107.573 33.0765 107.174 33 106.743 33C106.317 33 105.921 33.0759 105.556 33.2283C105.191 33.3801 104.872 33.5932 104.598 33.8664C104.324 34.1403 104.112 34.4585 103.959 34.8205C103.807 35.1824 103.731 35.5742 103.731 35.994C103.731 36.4144 103.808 36.8079 103.963 37.1757C104.118 37.5436 104.332 37.8641 104.606 38.1379C104.88 38.4118 105.201 38.626 105.569 38.7807C105.937 38.9355 106.334 39.0131 106.76 39.0131C107.186 39.0131 107.58 38.9355 107.943 38.7807C108.305 38.626 108.623 38.4118 108.897 38.1379C109.171 37.8641 109.385 37.5447 109.54 37.1804C109.695 36.8155 109.772 36.4231 109.772 36.0028C109.772 35.583 109.695 35.19 109.54 34.8251C109.384 34.4596 109.17 34.1403 108.897 33.8664ZM108.374 37.0222C108.216 37.3153 107.999 37.5447 107.722 37.7105C107.445 37.8764 107.119 37.9593 106.743 37.9593C106.472 37.9593 106.221 37.9126 105.992 37.8186C105.762 37.7246 105.566 37.592 105.403 37.4204C105.239 37.2493 105.112 37.0414 105.021 36.7986C104.93 36.5551 104.884 36.2871 104.884 35.994C104.884 35.6069 104.963 35.2671 105.121 34.974C105.278 34.6815 105.497 34.4532 105.776 34.2897C106.055 34.1268 106.378 34.0451 106.743 34.0451C107.025 34.0451 107.279 34.0918 107.507 34.1858C107.733 34.2798 107.93 34.4141 108.096 34.5881C108.262 34.7621 108.389 34.9682 108.478 35.2058C108.566 35.4434 108.61 35.7062 108.61 35.994C108.61 36.3864 108.531 36.7291 108.374 37.0222Z" fill="#F6F2ED"/>
<path d="M114.29 37.8104C114.055 37.9096 113.775 37.9593 113.448 37.9593C113.177 37.9593 112.929 37.9126 112.705 37.8186C112.48 37.7246 112.286 37.5903 112.119 37.4163C111.953 37.2423 111.826 37.0362 111.738 36.7986C111.649 36.5609 111.605 36.2953 111.605 36.0022C111.605 35.7149 111.649 35.4504 111.738 35.2105C111.826 34.9699 111.953 34.7627 112.119 34.5887C112.285 34.4147 112.48 34.2821 112.705 34.1905C112.929 34.0994 113.176 34.0539 113.448 34.0539C113.758 34.0539 114.029 34.1035 114.261 34.2033C114.494 34.3026 114.689 34.441 114.85 34.6179L115.614 33.8542C115.343 33.5885 115.03 33.3801 114.676 33.2283C114.322 33.0765 113.912 33 113.448 33C113.016 33 112.619 33.0777 112.257 33.2324C111.894 33.3871 111.576 33.6002 111.303 33.8711C111.029 34.142 110.818 34.4596 110.672 34.8251C110.525 35.19 110.451 35.5824 110.451 36.0028C110.451 36.4231 110.525 36.8155 110.672 37.1804C110.818 37.5453 111.029 37.8647 111.303 38.1379C111.576 38.4118 111.896 38.6243 112.261 38.7767C112.626 38.9285 113.021 39.0044 113.447 39.0044C113.923 39.0044 114.341 38.9296 114.7 38.7807C115.06 38.6313 115.375 38.4211 115.646 38.1502L114.883 37.3871C114.723 37.5692 114.525 37.7105 114.29 37.8104Z" fill="#F6F2ED"/>
<path d="M120.095 35.4137H117.564V33.0911H116.435V38.9215H117.564V36.4085H120.095V38.9215H121.224V33.0911H120.095V35.4137Z" fill="#F6F2ED"/>
<path d="M123.547 33.0911H122.418V38.9209H123.547V33.0911Z" fill="#F6F2ED"/>
<path d="M128.742 33.9499C128.571 33.6761 128.337 33.4647 128.041 33.3153C127.746 33.1658 127.412 33.0911 127.041 33.0911H125.871H125.572H124.742V38.9209H125.871V36.7565H127.041C127.412 36.7565 127.745 36.6818 128.041 36.5323C128.337 36.3834 128.571 36.1721 128.742 35.8983C128.914 35.6244 129 35.2998 129 34.9238C128.999 34.5478 128.914 34.2232 128.742 33.9499ZM127.746 35.4172C127.663 35.5526 127.55 35.6565 127.406 35.7284C127.262 35.8002 127.102 35.8364 126.925 35.8364H125.871V34.0118H126.925C127.102 34.0118 127.262 34.048 127.406 34.1198C127.55 34.1916 127.663 34.2967 127.746 34.4351C127.829 34.5735 127.871 34.7364 127.871 34.9244C127.871 35.1176 127.829 35.2823 127.746 35.4172Z" fill="#F6F2ED"/>
</g>
<defs>
<linearGradient id="paint0_linear_3_249" x1="20.6135" y1="77.2129" x2="20.6135" y2="118.377" gradientUnits="userSpaceOnUse">
<stop stop-color="#58A4A4"/>
<stop offset="1" stop-color="#073E39"/>
</linearGradient>
<linearGradient id="paint1_linear_3_249" x1="145.908" y1="7.23535" x2="145.908" y2="29.3854" gradientUnits="userSpaceOnUse">
<stop stop-color="#58A4A4"/>
<stop offset="1" stop-color="#073E39"/>
</linearGradient>
<linearGradient id="paint2_linear_3_249" x1="19.8279" y1="1.69334e-08" x2="19.8279" y2="33.6558" gradientUnits="userSpaceOnUse">
<stop stop-color="#58A4A4"/>
<stop offset="1" stop-color="#073E39"/>
</linearGradient>
<clipPath id="clip0_3_249">
<rect width="157" height="123" fill="white"/>
</clipPath>
<clipPath id="clip1_3_249">
<rect width="20.2" height="20.2" fill="white" transform="translate(41 46)"/>
</clipPath>
</defs>
</svg>
