<svg width="45" height="29" viewBox="0 0 45 29" fill="none" xmlns="http://www.w3.org/2000/svg">
<g clip-path="url(#clip0_3_172)">
<path d="M43.7189 28.3277H1.70242C1.42928 28.3271 1.1675 28.2183 0.974365 28.0252C0.781227 27.832 0.672463 27.5702 0.671875 27.2971V1.56238C0.674219 1.2904 0.783758 1.03033 0.976706 0.838633C1.16965 0.646935 1.43043 0.539089 1.70242 0.538513H43.7189C43.9905 0.539674 44.2507 0.647778 44.4432 0.839413C44.6357 1.03105 44.7449 1.29079 44.7472 1.56238V27.2927C44.7478 27.5662 44.6399 27.8288 44.4471 28.0228C44.2543 28.2168 43.9924 28.3265 43.7189 28.3277Z" fill="#2F4F4F"/>
<g clip-path="url(#clip1_3_172)">
<path d="M14.2203 8.88767H7.87975C7.39465 8.88767 7 9.28232 7 9.76742V14.3326C7 14.8177 7.39465 15.2123 7.87975 15.2123H14.2203C14.7054 15.2123 15.1 14.8177 15.1 14.3326V9.76742C15.1 9.28232 14.7054 8.88767 14.2203 8.88767ZM14.355 11.9311H12.437V11.0355C12.437 10.9612 12.4974 10.9008 12.5717 10.9008H14.355V11.9311ZM12.437 12.1689H14.355V13.1992H12.437V12.1689ZM14.5928 11.5348H14.8622V12.5652H14.5928V11.5348ZM14.5928 11.2971V10.2667H14.8622V11.2971H14.5928ZM14.355 10.663H12.5717C12.3663 10.663 12.1992 10.8301 12.1992 11.0355V14.4673H9.90078V9.63268H14.2203C14.2945 9.63268 14.355 9.69312 14.355 9.76742V10.663ZM9.66301 11.9311H7.74501V10.9008H9.66301V11.9311ZM7.50724 12.5652H7.23777V11.5348H7.50724V12.5652ZM7.74501 12.1689H9.66301V13.1992H7.74501V12.1689ZM11.1689 9.39491V9.12544H13.3405V9.39491H11.1689ZM10.9311 9.39491H8.75949V9.12544H10.9311V9.39491ZM9.66301 9.63268V10.663H7.74501V9.76742C7.74501 9.69312 7.80545 9.63268 7.87975 9.63268H9.66301ZM7.50724 11.2971H7.23777V10.2667H7.50724V11.2971ZM7.23777 12.8029H7.50724V13.8333H7.23777V12.8029ZM7.74501 13.437H9.66301V14.4673H7.87975C7.80545 14.4673 7.74501 14.4069 7.74501 14.3326V13.437ZM10.9311 14.7051V14.9746H8.75949V14.7051H10.9311ZM11.1689 14.7051H13.3405V14.9746H11.1689V14.7051ZM12.437 14.4673V13.437H14.355V14.3326C14.355 14.4069 14.2945 14.4673 14.2203 14.4673H12.437ZM14.5928 12.8029H14.8622V13.8333H14.5928V12.8029ZM14.8622 9.76742V10.029H14.5928V9.76742C14.5928 9.56202 14.4257 9.39491 14.2203 9.39491H13.5783V9.12544H14.2203C14.5742 9.12544 14.8622 9.41343 14.8622 9.76742ZM7.87975 9.12544H8.52172V9.39491H7.87975C7.67434 9.39491 7.50724 9.56202 7.50724 9.76742V10.029H7.23777V9.76742C7.23777 9.41343 7.52575 9.12544 7.87975 9.12544ZM7.23777 14.3326V14.071H7.50724V14.3326C7.50724 14.538 7.67434 14.7051 7.87975 14.7051H8.52172V14.9746H7.87975C7.52575 14.9746 7.23777 14.6866 7.23777 14.3326ZM14.2203 14.9746H13.5783V14.7051H14.2203C14.4257 14.7051 14.5928 14.538 14.5928 14.3326V14.071H14.8622V14.3326C14.8622 14.6866 14.5742 14.9746 14.2203 14.9746Z" fill="white"/>
</g>
<path d="M17.7321 11.0739C17.7321 11.0739 17.8663 11.0129 17.9516 11.1105C18.037 11.208 18.2565 11.5861 18.2565 11.9641C18.2565 12.3421 18.1589 12.7445 18.0614 12.8786C17.9638 13.0127 17.8663 13.0127 17.7931 12.964C17.7199 12.9152 16.5859 12.0494 16.5249 12.025C16.464 12.0007 16.4396 12.0616 16.5006 12.3909C16.5615 12.7201 16.464 12.8176 16.3786 12.8298C16.2933 12.842 16.0372 12.7689 16.025 12.086C16.0128 11.4032 16.1957 11.2934 16.2811 11.2934C16.4415 11.2934 17.6593 12.3928 17.7443 12.3787C17.8175 12.3665 17.8541 11.9031 17.7077 11.5373C17.5493 11.1412 17.7321 11.0739 17.7321 11.0739ZM19.6923 10.3911C20.1019 11.2044 20.0769 11.9735 20.0736 12.0547C20.0769 12.1254 20.1019 12.8956 19.6923 13.7089C19.6923 13.7089 19.5856 13.8309 19.4271 13.7577C19.2686 13.6846 19.3234 13.4895 19.3234 13.4895C19.3234 13.4895 19.6554 12.8487 19.6466 12.0616L19.6467 12.0494C19.6554 11.2623 19.3234 10.6105 19.3234 10.6105C19.3234 10.6105 19.2686 10.4154 19.4271 10.3423C19.5856 10.2691 19.6923 10.3911 19.6923 10.3911ZM18.8979 10.7569C19.232 11.3666 19.2093 11.9735 19.2061 12.0547C19.2093 12.1254 19.232 12.7079 18.8984 13.3669C18.8984 13.3669 18.7917 13.4889 18.6331 13.4157C18.4746 13.3426 18.5295 13.1475 18.5295 13.1475C18.5295 13.1475 18.7442 12.842 18.779 12.0616L18.7792 12.0494C18.7564 11.269 18.529 10.9764 18.529 10.9764C18.529 10.9764 18.4742 10.7813 18.6327 10.7081C18.7912 10.6349 18.8979 10.7569 18.8979 10.7569Z" fill="white"/>
</g>
<defs>
<clipPath id="clip0_3_172">
<rect width="45" height="29" fill="white"/>
</clipPath>
<clipPath id="clip1_3_172">
<rect width="8.1" height="8.1" fill="white" transform="translate(7 8)"/>
</clipPath>
</defs>
</svg>
