<svg width="17" height="18" viewBox="0 0 17 18" fill="none" xmlns="http://www.w3.org/2000/svg">
<path fill-rule="evenodd" clip-rule="evenodd" d="M16.4418 9.90841C14.7679 9.90841 13.928 11.9363 15.1115 13.1199C15.3296 13.3379 15.3296 13.6915 15.1115 13.9095L13.9095 15.1116C13.6914 15.3297 13.3378 15.3297 13.1198 15.1116C12.462 14.4538 11.5434 14.4213 10.8571 14.8094V12.5631C12.2455 11.7479 13.1778 10.2395 13.1778 8.51305C13.1778 5.92095 11.0765 3.81969 8.4844 3.81969C5.89234 3.81969 3.79104 5.92098 3.79104 8.51305C3.79104 10.2525 4.7373 11.7708 6.14306 12.5816V14.8078C5.45703 14.4199 4.5388 14.4531 3.88029 15.1116C3.66227 15.3297 3.30866 15.3297 3.09064 15.1116L1.88857 13.9095C1.67052 13.6915 1.67052 13.3379 1.88857 13.1199C3.07214 11.9363 2.23222 9.90841 0.558353 9.90841C0.249864 9.90841 0 9.65837 0 9.35002V7.65013C0 7.34179 0.249864 7.09174 0.558353 7.09174C2.23222 7.09174 3.07214 5.06386 1.88857 3.88033C1.67052 3.66231 1.67052 3.30869 1.88857 3.09068L3.09064 1.88857C3.30869 1.67052 3.66231 1.67052 3.88029 1.88857C5.06386 3.07214 7.09178 2.23229 7.09178 0.558353C7.09178 0.2499 7.34182 0 7.65013 0H9.35005C9.65836 0 9.90841 0.2499 9.90841 0.558353C9.90841 2.23229 11.9363 3.07214 13.1199 1.88857C13.3379 1.67052 13.6915 1.67052 13.9095 1.88857L15.1116 3.09068C15.3297 3.30869 15.3297 3.66231 15.1116 3.88033C13.928 5.06386 14.7679 7.09174 16.4418 7.09174C16.7503 7.09174 17.0002 7.34179 17.0002 7.65013V9.35002C17.0002 9.65837 16.7503 9.90841 16.4418 9.90841ZM6.69908 5.42874C5.64017 6.04842 4.9288 7.19755 4.9288 8.51305C4.9288 10.0413 5.88888 11.3452 7.23872 11.855V17.2742H9.76143V11.8549C11.1113 11.3452 12.0714 10.0413 12.0714 8.51305C12.0714 7.19758 11.36 6.04842 10.3011 5.42874V8.86141L8.50006 9.90125L6.69908 8.86145V5.42874Z" fill="white"/>
</svg>
