<svg width="30" height="30" viewBox="0 0 30 30" fill="none" xmlns="http://www.w3.org/2000/svg">
<circle cx="15" cy="15" r="15" fill="#D3D1CE" fill-opacity="0.3"/>
<circle cx="15" cy="15" r="14.5" stroke="#D3D1CE" stroke-opacity="0.3"/>
<path fill-rule="evenodd" clip-rule="evenodd" d="M23.4389 15.9568C21.7568 15.9568 20.9128 17.9946 22.1021 19.1839C22.3213 19.403 22.3213 19.7584 22.1021 19.9774L20.8942 21.1854C20.6751 21.4045 20.3198 21.4045 20.1007 21.1854C19.4396 20.5243 18.5166 20.4917 17.8269 20.8817V18.6244C19.2221 17.8053 20.159 16.2895 20.159 14.5546C20.159 11.9499 18.0474 9.83834 15.4426 9.83834C12.8379 9.83834 10.7264 11.9499 10.7264 14.5546C10.7264 16.3025 11.6772 17.8283 13.0899 18.643V20.8801C12.4005 20.4903 11.4778 20.5236 10.816 21.1854C10.597 21.4045 10.2416 21.4045 10.0225 21.1854L8.8146 19.9774C8.59549 19.7584 8.59549 19.403 8.8146 19.1839C10.004 17.9946 9.15993 15.9568 7.47789 15.9568C7.16789 15.9568 6.91681 15.7055 6.91681 15.3957V13.6875C6.91681 13.3776 7.16789 13.1264 7.47789 13.1264C9.15993 13.1264 10.004 11.0886 8.8146 9.89927C8.59549 9.68019 8.59549 9.32485 8.8146 9.10577L10.0225 7.8978C10.2417 7.67868 10.597 7.67868 10.816 7.8978C12.0054 9.08714 14.0432 8.24319 14.0432 6.56108C14.0432 6.25112 14.2945 6 14.6043 6H16.3125C16.6223 6 16.8736 6.25112 16.8736 6.56108C16.8736 8.24319 18.9114 9.08714 20.1007 7.8978C20.3198 7.67868 20.6751 7.67868 20.8942 7.8978L22.1022 9.10577C22.3213 9.32485 22.3213 9.68019 22.1022 9.89927C20.9129 11.0886 21.7568 13.1264 23.4389 13.1264C23.7489 13.1264 24 13.3776 24 13.6875V15.3957C24 15.7055 23.7489 15.9568 23.4389 15.9568ZM13.6486 11.4552C12.5845 12.078 11.8697 13.2327 11.8697 14.5546C11.8697 16.0904 12.8344 17.4006 14.1909 17.9128V23.3585H16.7259V17.9128C18.0823 17.4006 19.0471 16.0904 19.0471 14.5546C19.0471 13.2327 18.3323 12.078 17.2682 11.4552V14.9047L15.4584 15.9496L13.6486 14.9047V11.4552Z" fill="#F6F2ED"/>
</svg>
