<svg width="130" height="100" viewBox="0 0 130 100" fill="none" xmlns="http://www.w3.org/2000/svg">
<path opacity="0.3" d="M94.2861 36.4297C110.46 36.4299 123.571 49.5417 123.571 65.7158C123.571 81.89 110.46 95.0017 94.2861 95.002C78.1121 95.002 65 81.8901 65 65.7158C65 49.5415 78.1121 36.4297 94.2861 36.4297ZM97.8574 66.4297C93.1236 66.4297 89.2852 70.268 89.2852 75.002C89.2853 79.7358 93.1236 83.5732 97.8574 83.5732C102.591 83.573 106.429 79.7357 106.429 75.002C106.429 70.2681 102.591 66.4299 97.8574 66.4297Z" fill="url(#paint0_linear_6089_12493)"/>
<ellipse opacity="0.3" cx="29.2857" cy="29.2862" rx="29.2857" ry="29.2862" fill="url(#paint1_linear_6089_12493)"/>
<ellipse opacity="0.3" cx="112.857" cy="21.431" rx="13.5714" ry="13.5716" fill="url(#paint2_linear_6089_12493)"/>
<ellipse opacity="0.3" cx="127.857" cy="9.28797" rx="1.42857" ry="1.42859" fill="url(#paint3_linear_6089_12493)"/>
<ellipse opacity="0.3" cx="119.286" cy="39.288" rx="1.42857" ry="1.42859" fill="url(#paint4_linear_6089_12493)"/>
<ellipse opacity="0.3" cx="5.7143" cy="85.7155" rx="4.28571" ry="4.28578" fill="url(#paint5_linear_6089_12493)"/>
<ellipse opacity="0.3" cx="34.2856" cy="98.5731" rx="1.42857" ry="1.42859" fill="url(#paint6_linear_6089_12493)"/>
<path d="M64.2816 7.85547C75.2018 7.85715 85.6741 12.1961 93.3959 19.918C101.117 27.6398 105.457 38.112 105.458 49.0322C105.459 55.3668 103.998 61.5502 101.266 67.1348C100.221 66.6813 99.0684 66.4287 97.8568 66.4287C93.1232 66.4289 89.2856 70.2663 89.2855 75C89.2855 76.9924 89.9675 78.8247 91.1078 80.2803C83.6677 86.6719 74.1584 90.2229 64.2816 90.2256C63.7836 90.2256 63.2855 90.2255 62.8031 90.21H62.7406C62.4606 90.21 62.1807 90.1943 61.9008 90.1787C55.8668 90.1881 49.9646 88.412 44.9379 85.0742C44.3953 84.8925 43.8117 84.8716 43.2572 85.0127C43.0706 85.0438 42.8684 85.0744 42.6508 85.1055C36.3171 86.2104 19.8677 92.2793 21.5482 91.0811C21.8838 90.8453 22.2061 90.5913 22.5131 90.3193C22.8243 90.0703 23.1207 89.8056 23.4164 89.541C30.139 83.4251 31.8035 74.2897 30.4496 72.5156C25.0965 65.575 23.0892 58.4938 23.0892 49.0322C23.0901 38.4489 27.169 28.2731 34.4779 20.6191C41.787 12.965 51.7643 8.42096 62.3363 7.93262C62.5945 7.90156 62.8546 7.88675 63.1146 7.88672C63.5036 7.85561 63.8926 7.85547 64.2816 7.85547Z" fill="#F6F2ED"/>
<path d="M47.3357 9.74121C55.1449 6.5065 63.7379 5.6606 72.0281 7.30957C80.3184 8.95864 87.9339 13.0288 93.9109 19.0059C99.8878 24.9829 103.958 32.5983 105.607 40.8887C107.256 49.179 106.41 57.7727 103.176 65.582C102.887 66.2794 102.578 66.9668 102.254 67.6455C101.368 67.1149 100.378 66.7415 99.322 66.5596C99.6683 65.8478 99.9954 65.1249 100.3 64.3906C103.299 57.1501 104.083 49.1827 102.554 41.4961C101.026 33.8096 97.2522 26.7488 91.7107 21.207C86.1693 15.6653 79.1089 11.8915 71.4226 10.3623C63.7362 8.83317 55.7686 9.6173 48.5281 12.6162C41.2876 15.6151 35.0991 20.6939 30.7449 27.21C26.3906 33.7262 24.0655 41.3875 24.0652 49.2246C24.0652 58.7517 26.1026 65.2803 31.0964 71.7588C31.9117 73.2111 32.1334 74.9229 31.7156 76.5352C30.984 80.809 29.1604 84.8211 26.4216 88.1826L26.9197 88.0244C36.8901 84.8218 41.3672 83.584 43.6082 83.584V83.5859C44.1555 83.5522 44.7016 83.6769 45.1804 83.9443C51.0828 87.6588 55.5805 88.8525 63.6912 88.8525C71.528 88.8525 79.1887 86.5278 85.7048 82.1738C87.2684 81.1291 88.7483 79.9776 90.1375 78.7324C90.5975 79.6831 91.2288 80.5347 91.99 81.25C90.5571 82.5163 89.0366 83.6911 87.4343 84.7617C80.4063 89.4578 72.1437 91.9648 63.6912 91.9648C55.084 91.9648 50.0074 90.6277 43.6863 86.6797C41.7597 86.5287 32.4119 89.5311 27.8708 90.9893C25.5241 91.9045 23.0921 92.5843 20.6111 93.0195C19.9172 93.0195 19.7474 92.6852 19.4519 92.1035C19.2745 91.743 19.2359 91.3292 19.3445 90.9424C19.453 90.5556 19.7008 90.2224 20.0398 90.0068C27.6806 84.4636 29.3874 75.0921 28.6062 73.623C23.25 66.6778 20.9529 59.3713 20.9529 49.2266C20.9529 40.7738 23.46 32.5107 28.156 25.4824C32.8521 18.4542 39.5265 12.976 47.3357 9.74121Z" fill="url(#paint7_linear_6089_12493)"/>
<path d="M100.668 17.2344C102.306 17.2344 103.846 17.9163 105.006 19.1104C106.276 20.418 106.976 22.2369 106.964 24.0977C106.954 25.6961 106.333 27.3042 105.269 28.8623C104.444 30.069 103.328 31.2871 101.972 32.4873C99.693 34.5049 97.4616 35.8404 97.3411 35.9121C97.0661 36.0756 96.7511 36.163 96.429 36.1631C96.1536 36.1631 95.8786 36.0991 95.6272 35.9727L95.5208 35.915C95.3965 35.8417 93.1499 34.5063 90.8635 32.4893C89.5022 31.2884 88.383 30.0694 87.5598 28.8604C86.4956 27.2974 85.883 25.6816 85.8928 24.0752C85.9038 22.3026 86.5256 20.6063 87.676 19.3135C88.8504 17.9938 90.454 17.2344 92.1887 17.2344C93.8178 17.2344 95.3082 17.9169 96.428 19.0293C97.5478 17.9166 99.0389 17.2344 100.668 17.2344Z" fill="#F6877B" stroke="#DB6E60" stroke-width="2.5"/>
<path d="M103.571 70.4248C106.252 70.4248 108.426 68.2512 108.426 65.5698C108.426 62.8885 106.252 60.7148 103.571 60.7148C100.89 60.7148 98.7162 62.8885 98.7162 65.5698C98.7162 68.2512 100.89 70.4248 103.571 70.4248Z" fill="url(#paint8_linear_6089_12493)"/>
<path d="M113.393 70.4276C115.088 70.4276 116.462 69.0534 116.462 67.3583C116.462 65.6632 115.088 64.2891 113.393 64.2891C111.697 64.2891 110.323 65.6632 110.323 67.3583C110.323 69.0534 111.697 70.4276 113.393 70.4276Z" fill="url(#paint9_linear_6089_12493)"/>
<path d="M93.7497 70.4276C95.4448 70.4276 96.8189 69.0534 96.8189 67.3583C96.8189 65.6632 95.4448 64.2891 93.7497 64.2891C92.0547 64.2891 90.6805 65.6632 90.6805 67.3583C90.6805 69.0534 92.0547 70.4276 93.7497 70.4276Z" fill="url(#paint10_linear_6089_12493)"/>
<path d="M96.7737 73.181C95.5655 72.1911 94.4714 72.3221 93.0745 72.3221C90.9852 72.3221 89.2854 74.0119 89.2854 76.0884V82.1828C89.2854 83.0846 90.0215 83.8179 90.9266 83.8179C94.8343 83.8179 94.3635 83.8886 94.3635 83.6493C94.3635 79.3309 93.852 76.1639 96.7737 73.181Z" fill="url(#paint11_linear_6089_12493)"/>
<path d="M104.9 72.3471C102.46 72.1436 100.339 72.3494 98.5098 73.8594C95.4486 76.3115 96.0377 79.613 96.0377 83.652C96.0377 84.7206 96.9071 85.6062 97.9919 85.6062C109.771 85.6062 110.24 85.9862 110.938 84.4394C111.167 83.9163 111.105 84.0825 111.105 79.0782C111.105 75.1035 107.663 72.3471 104.9 72.3471ZM114.068 72.3248C112.663 72.3248 111.575 72.1951 110.369 73.1836C113.268 76.1444 112.779 79.0953 112.779 83.652C112.779 83.8927 112.388 83.8205 116.157 83.8205C117.095 83.8205 117.857 83.061 117.857 82.1274V76.091C117.857 74.0145 116.157 72.3248 114.068 72.3248Z" fill="url(#paint12_linear_6089_12493)"/>
<rect x="93.235" y="82.5226" width="21.3867" height="14.3661" rx="4.91463" fill="url(#paint13_linear_6089_12493)" stroke="#0C443F" stroke-width="0.756098"/>
<path d="M104.984 84.1221C105.102 84.1074 105.221 84.117 105.335 84.1494C105.449 84.1819 105.555 84.2371 105.647 84.3115C105.739 84.3859 105.815 84.4785 105.871 84.583C105.926 84.6875 105.96 84.8021 105.971 84.9199C105.981 85.0354 105.967 85.1512 105.932 85.2617L105.932 85.2627L103.167 94.9434C103.114 95.1273 103.003 95.289 102.85 95.4043C102.698 95.5195 102.512 95.5818 102.321 95.582H102.32C102.239 95.5816 102.158 95.5714 102.08 95.5498L102.078 95.5488C101.854 95.4845 101.665 95.3337 101.552 95.1299C101.438 94.9259 101.411 94.6853 101.474 94.4609L104.24 84.7793C104.269 84.6671 104.319 84.5615 104.389 84.4688C104.459 84.3739 104.549 84.2939 104.651 84.2344C104.754 84.175 104.867 84.1368 104.984 84.1221ZM99.5555 86.207C99.6724 86.206 99.7882 86.2282 99.8964 86.2725C100.005 86.3167 100.103 86.3822 100.185 86.4648C100.268 86.5475 100.334 86.6457 100.378 86.7539C100.422 86.8621 100.445 86.9778 100.444 87.0947C100.443 87.2116 100.418 87.3272 100.372 87.4346C100.326 87.5408 100.259 87.6361 100.177 87.7168L100.178 87.7178L98.0341 89.8613L100.178 92.0049H100.177C100.26 92.0856 100.326 92.1817 100.372 92.2881C100.418 92.3954 100.443 92.5111 100.444 92.6279C100.445 92.7448 100.422 92.8615 100.378 92.9697C100.334 93.0778 100.268 93.1762 100.185 93.2588C100.103 93.3413 100.004 93.407 99.8964 93.4512C99.7883 93.4953 99.6723 93.5176 99.5555 93.5166C99.4387 93.5156 99.3231 93.4914 99.2157 93.4453C99.1083 93.3992 99.0108 93.3321 98.9296 93.248V93.2471L96.1659 90.4844C96.0008 90.3193 95.9081 90.0948 95.9081 89.8613C95.9081 89.6281 96.0011 89.4043 96.1659 89.2393L98.9325 86.4727C99.0132 86.3898 99.1095 86.324 99.2157 86.2783C99.3231 86.2322 99.4387 86.2081 99.5555 86.207ZM107.851 86.207C107.968 86.208 108.084 86.2322 108.191 86.2783C108.298 86.324 108.394 86.3899 108.474 86.4727L111.241 89.2393C111.406 89.4043 111.499 89.628 111.499 89.8613C111.499 90.0948 111.406 90.3193 111.241 90.4844L108.475 93.25C108.395 93.3331 108.298 93.3996 108.191 93.4453C108.084 93.4914 107.968 93.5156 107.851 93.5166C107.735 93.5176 107.619 93.4954 107.511 93.4512C107.402 93.4069 107.304 93.3414 107.222 93.2588C107.139 93.1762 107.073 93.0778 107.029 92.9697C106.985 92.8615 106.963 92.7448 106.964 92.6279C106.965 92.5111 106.989 92.3954 107.035 92.2881C107.081 92.1808 107.148 92.084 107.232 92.0029L109.373 89.8613L107.232 87.7197C107.148 87.6386 107.081 87.5418 107.035 87.4346C106.989 87.3272 106.965 87.2116 106.964 87.0947C106.963 86.9779 106.985 86.8621 107.029 86.7539C107.073 86.6457 107.139 86.5475 107.222 86.4648C107.304 86.3822 107.402 86.3167 107.511 86.2725C107.619 86.2282 107.735 86.206 107.851 86.207Z" fill="#A2E2D3" stroke="white" stroke-width="0.378049"/>
<path d="M58.285 52.2196C59.1846 51.5435 60.0188 50.9576 60.8128 50.3165C61.9787 49.37 63.1597 48.4335 64.2552 47.4068C65.1045 46.6105 65.6473 45.6189 65.6272 44.3768C65.6221 44.0763 65.788 43.7308 65.9739 43.4754C68.6374 39.7994 71.316 36.1384 73.9945 32.4724C74.7935 31.3806 75.8087 30.6194 77.2258 30.7245C79.3566 30.8898 80.4371 33.5391 79.1305 35.3972C77.4168 37.8362 75.668 40.2451 73.9191 42.654C71.8939 45.4486 69.8586 48.2381 67.8233 51.0277C67.7881 51.0728 67.758 51.1178 67.7228 51.1629C67.4011 51.5686 67.1851 52.0093 67.7228 52.3799C68.2404 52.7355 68.5268 52.3398 68.8032 51.9592C69.7179 50.6972 70.6325 49.4351 71.5672 48.1881C74.3865 44.4219 77.2158 40.6608 80.0351 36.8946C80.7386 35.9531 81.5578 35.297 82.8493 35.4673C84.6484 35.7077 85.7188 37.4906 84.9248 39.1182C84.5228 39.9346 83.9499 40.6708 83.4071 41.412C80.4974 45.3534 77.5776 49.2899 74.6579 53.2263C74.291 53.7171 73.9442 54.2229 73.5874 54.7187C73.2658 55.1695 73.0849 55.6402 73.6176 56.0309C74.2206 56.4716 74.5171 55.9607 74.8136 55.5551C77.9093 51.2981 80.9949 47.0412 84.0956 42.7892C84.7841 41.8427 85.568 41.5873 86.4827 41.9379C87.4325 42.3034 87.9451 43.0947 87.8446 44.1815C87.8044 44.6122 87.6787 45.0579 87.4878 45.4486C87.1511 46.1497 86.7641 46.8258 86.352 47.4919C84.4373 50.592 82.5427 53.7071 80.5728 56.7721C75.7735 64.2493 68.8987 68.6214 60.1696 70.1589C59.8128 70.224 59.461 70.3242 59.1042 70.3643C55.9482 70.7599 53.531 72.3375 51.7068 74.8967C51.35 75.3925 50.9429 75.8532 50.561 76.334C49.8373 77.2555 48.993 77.3957 48.0231 76.7297C47.7517 76.5393 47.5055 76.309 47.2643 76.0736C44.3897 73.239 41.5102 70.4043 38.6356 67.5647C37.6155 66.5581 37.6004 66.0572 38.5753 65.0506C40.8971 62.6617 42.5957 59.9523 43.1736 56.6118C43.9827 51.9542 46.8723 48.8642 50.8977 46.7106C53.9431 45.083 57.0438 43.5555 60.1444 42.028C61.5315 41.3419 62.7577 41.6273 63.5115 42.6741C64.3055 43.7759 64.2854 45.3785 63.2501 46.3551C61.9134 47.6071 60.446 48.7289 59.0087 49.8708C58.0287 50.6471 56.9784 51.3482 55.9934 52.1195C55.7874 52.2797 55.5713 52.6453 55.6216 52.8557C55.6718 53.071 56.0236 53.3214 56.2749 53.3615C59.4861 53.8573 62.3456 55.1795 65.004 56.9824C65.19 57.1076 65.3809 57.328 65.5618 57.323C65.8583 57.313 66.2352 57.2228 66.4111 57.0225C66.5317 56.8873 66.4363 56.4616 66.3106 56.2362C66.18 56.0158 65.8985 55.8706 65.6674 55.7153C63.5768 54.303 61.3304 53.2012 58.9082 52.4751C58.7373 52.425 58.5715 52.3348 58.285 52.2196Z" fill="url(#paint14_linear_6089_12493)"/>
<path d="M64.2319 33.5719C62.2464 33.5505 60.6901 31.8028 60.7145 29.6274C60.7438 27.3719 62.3049 25.6937 64.3441 25.715C66.3443 25.7364 67.8859 27.5056 67.8567 29.7557C67.8323 31.9204 66.2419 33.5933 64.2319 33.5719Z" fill="url(#paint15_linear_6089_12493)"/>
<defs>
<linearGradient id="paint0_linear_6089_12493" x1="94.2857" y1="36.4297" x2="94.2857" y2="95.002" gradientUnits="userSpaceOnUse">
<stop stop-color="#58A4A4"/>
<stop offset="1" stop-color="#073E39"/>
</linearGradient>
<linearGradient id="paint1_linear_6089_12493" x1="29.2857" y1="0" x2="29.2857" y2="58.5723" gradientUnits="userSpaceOnUse">
<stop stop-color="#58A4A4"/>
<stop offset="1" stop-color="#073E39"/>
</linearGradient>
<linearGradient id="paint2_linear_6089_12493" x1="112.857" y1="7.85938" x2="112.857" y2="35.0026" gradientUnits="userSpaceOnUse">
<stop stop-color="#58A4A4"/>
<stop offset="1" stop-color="#073E39"/>
</linearGradient>
<linearGradient id="paint3_linear_6089_12493" x1="127.857" y1="7.85937" x2="127.857" y2="10.7166" gradientUnits="userSpaceOnUse">
<stop stop-color="#58A4A4"/>
<stop offset="1" stop-color="#073E39"/>
</linearGradient>
<linearGradient id="paint4_linear_6089_12493" x1="119.286" y1="37.8594" x2="119.286" y2="40.7166" gradientUnits="userSpaceOnUse">
<stop stop-color="#58A4A4"/>
<stop offset="1" stop-color="#073E39"/>
</linearGradient>
<linearGradient id="paint5_linear_6089_12493" x1="5.7143" y1="81.4297" x2="5.7143" y2="90.0012" gradientUnits="userSpaceOnUse">
<stop stop-color="#58A4A4"/>
<stop offset="1" stop-color="#073E39"/>
</linearGradient>
<linearGradient id="paint6_linear_6089_12493" x1="34.2856" y1="97.1445" x2="34.2856" y2="100.002" gradientUnits="userSpaceOnUse">
<stop stop-color="#58A4A4"/>
<stop offset="1" stop-color="#073E39"/>
</linearGradient>
<linearGradient id="paint7_linear_6089_12493" x1="62.8562" y1="6.48828" x2="62.8562" y2="93.0194" gradientUnits="userSpaceOnUse">
<stop stop-color="#58A4A4"/>
<stop offset="1" stop-color="#073E39"/>
</linearGradient>
<linearGradient id="paint8_linear_6089_12493" x1="103.571" y1="60.7148" x2="103.571" y2="70.4248" gradientUnits="userSpaceOnUse">
<stop stop-color="#58A4A4"/>
<stop offset="1" stop-color="#073E39"/>
</linearGradient>
<linearGradient id="paint9_linear_6089_12493" x1="113.393" y1="64.2891" x2="113.393" y2="70.4276" gradientUnits="userSpaceOnUse">
<stop stop-color="#58A4A4"/>
<stop offset="1" stop-color="#073E39"/>
</linearGradient>
<linearGradient id="paint10_linear_6089_12493" x1="93.7497" y1="64.2891" x2="93.7497" y2="70.4276" gradientUnits="userSpaceOnUse">
<stop stop-color="#58A4A4"/>
<stop offset="1" stop-color="#073E39"/>
</linearGradient>
<linearGradient id="paint11_linear_6089_12493" x1="93.0295" y1="72.3164" x2="93.0295" y2="83.8276" gradientUnits="userSpaceOnUse">
<stop stop-color="#58A4A4"/>
<stop offset="1" stop-color="#073E39"/>
</linearGradient>
<linearGradient id="paint12_linear_6089_12493" x1="106.925" y1="72.2812" x2="106.925" y2="85.6475" gradientUnits="userSpaceOnUse">
<stop stop-color="#58A4A4"/>
<stop offset="1" stop-color="#073E39"/>
</linearGradient>
<linearGradient id="paint13_linear_6089_12493" x1="103.928" y1="82.1445" x2="103.928" y2="97.2667" gradientUnits="userSpaceOnUse">
<stop stop-color="#58A4A4"/>
<stop offset="1" stop-color="#073E39"/>
</linearGradient>
<linearGradient id="paint14_linear_6089_12493" x1="62.857" y1="30.7148" x2="62.857" y2="77.1441" gradientUnits="userSpaceOnUse">
<stop stop-color="#58A4A4"/>
<stop offset="1" stop-color="#073E39"/>
</linearGradient>
<linearGradient id="paint15_linear_6089_12493" x1="64.2857" y1="25.7148" x2="64.2857" y2="33.5721" gradientUnits="userSpaceOnUse">
<stop stop-color="#58A4A4"/>
<stop offset="1" stop-color="#073E39"/>
</linearGradient>
</defs>
</svg>
