<svg width="181" height="140" viewBox="0 0 181 140" fill="none" xmlns="http://www.w3.org/2000/svg">
<circle opacity="0.3" cx="41" cy="41" r="41" fill="url(#paint0_linear_6079_14219)"/>
<circle opacity="0.3" cx="132" cy="92" r="41" fill="url(#paint1_linear_6079_14219)"/>
<circle opacity="0.3" cx="158" cy="30" r="19" fill="url(#paint2_linear_6079_14219)"/>
<circle opacity="0.3" cx="179" cy="13" r="2" fill="url(#paint3_linear_6079_14219)"/>
<circle opacity="0.3" cx="167" cy="55" r="2" fill="url(#paint4_linear_6079_14219)"/>
<circle opacity="0.3" cx="8" cy="120" r="6" fill="url(#paint5_linear_6079_14219)"/>
<circle opacity="0.3" cx="48" cy="138" r="2" fill="url(#paint6_linear_6079_14219)"/>
<path d="M146.821 68.9326C146.823 84.2242 140.751 98.8903 129.94 109.705C119.129 120.52 104.465 126.598 89.1739 126.602C88.4767 126.602 87.7796 126.602 87.1042 126.58H87.017C86.6249 126.58 86.2327 126.558 85.8405 126.537C77.3931 126.55 69.1305 124.063 62.0931 119.391C61.3334 119.136 60.5165 119.106 59.7401 119.303C59.4787 119.347 59.1955 119.391 58.8905 119.434C50.0233 120.981 26.9948 129.478 29.3478 127.8C29.8177 127.47 30.2687 127.114 30.6985 126.733C31.1343 126.384 31.5482 126.014 31.9622 125.643C41.374 117.081 43.7052 104.292 41.8097 101.809C34.3151 92.0918 31.5046 82.1789 31.5046 68.9326C31.5057 54.116 37.2159 39.8695 47.4487 29.1539C57.6814 18.4383 71.6497 12.0778 86.4506 11.3941C86.812 11.3506 87.1758 11.3288 87.5399 11.3287C88.0846 11.2852 88.6292 11.2852 89.1739 11.2852C104.462 11.2875 119.124 17.3618 129.934 28.1723C140.745 38.9828 146.819 53.6443 146.821 68.9326Z" fill="#F6F2ED"/>
<path d="M28.8553 130.225C27.8836 130.225 27.6462 129.756 27.2322 128.941C26.9839 128.437 26.9306 127.858 27.0826 127.316C27.2346 126.775 27.5811 126.308 28.0558 126.007C38.753 118.246 41.143 105.126 40.0493 103.07C32.5503 93.3463 29.3346 83.1175 29.3346 68.9147C29.3346 57.0809 32.8438 45.5129 39.4183 35.6735C45.9928 25.8341 55.3373 18.1651 66.2703 13.6366C77.2033 9.10796 89.2337 7.92307 100.84 10.2317C112.446 12.5404 123.108 18.2389 131.475 26.6066C139.843 34.9744 145.542 45.6356 147.85 57.242C150.159 68.8484 148.974 80.8787 144.446 91.8117C139.917 102.745 132.248 112.089 122.409 118.664C112.569 125.238 101.001 128.747 89.1673 128.747C77.1171 128.747 70.0103 126.876 61.1606 121.349C58.4634 121.137 45.3761 125.34 39.0188 127.381C35.7333 128.663 32.3288 129.615 28.8553 130.225ZM61.0516 117.017C61.818 116.97 62.5818 117.144 63.2521 117.519C71.5158 122.719 77.8121 124.39 89.1673 124.39C100.139 124.39 110.865 121.137 119.988 115.041C129.11 108.945 136.221 100.281 140.42 90.1447C144.619 80.0081 145.717 68.8539 143.577 58.0928C141.437 47.3317 136.153 37.447 128.395 29.6885C120.637 21.9301 110.752 16.6464 99.9914 14.5056C89.2303 12.3648 78.0762 13.4631 67.9393 17.6616C57.8025 21.86 49.1383 28.9701 43.0423 38.0927C36.9463 47.2153 33.6924 57.9407 33.692 68.9126C33.692 82.2504 36.5438 91.3898 43.5352 100.46C44.6766 102.493 44.9873 104.889 44.4023 107.146C43.3782 113.13 40.825 118.747 36.9905 123.453L37.6876 123.231C51.6463 118.747 57.9144 117.015 61.0516 117.015V117.017Z" fill="url(#paint7_linear_6079_14219)"/>
<path d="M140.936 24.6289C143.085 24.6289 145.114 25.5242 146.649 27.1045C148.332 28.836 149.265 31.2533 149.25 33.7344C149.237 35.8431 148.417 37.9988 146.964 40.126C145.838 41.7729 144.306 43.4476 142.43 45.1084C139.272 47.9039 136.177 49.7553 136.021 49.8477C135.752 50.008 135.448 50.1028 135.135 50.124L135 50.1289C134.692 50.1289 134.384 50.0576 134.103 49.916L133.983 49.8506C133.83 49.7603 131.084 48.1281 128.133 45.623L127.54 45.1104C125.656 43.4487 124.12 41.7726 122.997 40.123C121.545 37.9903 120.737 35.8266 120.75 33.709C120.765 31.3414 121.595 29.085 123.12 27.3711C124.675 25.6236 126.788 24.6289 129.064 24.6289C131.373 24.629 133.486 25.6719 135 27.3623C136.514 25.6719 138.627 24.629 140.936 24.6289Z" fill="#F6877B" stroke="#DB6E60" stroke-width="2.5"/>
<path d="M89 60.8281C96.1322 60.8281 101.914 55.0463 101.914 47.9141C101.914 40.7818 96.1322 35 89 35C81.8678 35 76.0859 40.7818 76.0859 47.9141C76.0859 55.0463 81.8678 60.8281 89 60.8281Z" fill="url(#paint8_linear_6079_14219)"/>
<path d="M115.125 60.8281C119.634 60.8281 123.289 57.173 123.289 52.6641C123.289 48.1552 119.634 44.5 115.125 44.5C110.616 44.5 106.961 48.1552 106.961 52.6641C106.961 57.173 110.616 60.8281 115.125 60.8281Z" fill="url(#paint9_linear_6079_14219)"/>
<path d="M62.875 60.8281C67.3839 60.8281 71.0391 57.173 71.0391 52.6641C71.0391 48.1552 67.3839 44.5 62.875 44.5C58.3661 44.5 54.7109 48.1552 54.7109 52.6641C54.7109 57.173 58.3661 60.8281 62.875 60.8281Z" fill="url(#paint10_linear_6079_14219)"/>
<path d="M70.9188 68.163C67.7052 65.53 64.7947 65.8786 61.0789 65.8786C55.5214 65.8786 51 70.3732 51 75.8966V92.1075C51 94.5062 52.9579 96.4567 55.3655 96.4567C65.76 96.4567 64.5078 96.6448 64.5078 96.0084C64.5078 84.5214 63.1472 76.0974 70.9188 68.163Z" fill="url(#paint11_linear_6079_14219)"/>
<path d="M92.5343 65.9369C86.044 65.3955 80.4027 65.9431 75.5367 69.9595C67.3939 76.4819 68.9609 85.2639 68.9609 96.0073C68.9609 98.8498 71.2736 101.206 74.1592 101.206C105.492 101.206 106.739 102.216 108.597 98.1018C109.206 96.7104 109.039 97.1525 109.039 83.8414C109.039 73.2688 99.8845 65.9369 92.5343 65.9369ZM116.921 65.8775C113.185 65.8775 110.291 65.5325 107.081 68.1619C114.795 76.0375 113.492 83.8867 113.492 96.0073C113.492 96.6477 112.453 96.4556 122.479 96.4556C124.972 96.4556 127 94.4354 127 91.952V75.8955C127 70.3722 122.479 65.8775 116.921 65.8775Z" fill="url(#paint12_linear_6079_14219)"/>
<rect x="114.5" y="108.5" width="40" height="27" rx="6.5" fill="url(#paint13_linear_6079_14219)" stroke="#0C443F"/>
<path d="M136.468 111.762C136.672 111.736 136.879 111.752 137.077 111.809C137.275 111.865 137.459 111.961 137.619 112.09C137.779 112.219 137.912 112.38 138.009 112.562C138.105 112.743 138.164 112.943 138.182 113.147C138.199 113.349 138.176 113.552 138.114 113.745L132.994 131.671C132.903 131.991 132.71 132.272 132.444 132.473C132.179 132.673 131.856 132.781 131.523 132.781H131.521C131.381 132.781 131.24 132.761 131.104 132.724H131.102C130.712 132.612 130.382 132.35 130.186 131.995C129.989 131.641 129.94 131.222 130.052 130.832L135.174 112.907C135.223 112.711 135.31 112.526 135.432 112.363C135.555 112.199 135.711 112.06 135.889 111.957C136.067 111.854 136.264 111.787 136.468 111.762ZM126.404 115.621C126.607 115.619 126.809 115.658 126.997 115.735C127.185 115.812 127.355 115.926 127.499 116.069C127.643 116.213 127.757 116.384 127.834 116.572C127.911 116.76 127.949 116.962 127.947 117.165C127.945 117.368 127.903 117.569 127.823 117.756C127.743 117.943 127.627 118.112 127.48 118.253L127.479 118.252L123.443 122.288L127.48 126.325L127.584 126.437C127.682 126.552 127.763 126.682 127.823 126.822C127.903 127.009 127.946 127.21 127.947 127.413C127.949 127.616 127.911 127.818 127.834 128.006C127.757 128.194 127.643 128.364 127.499 128.508C127.355 128.651 127.185 128.766 126.997 128.843C126.809 128.92 126.607 128.958 126.404 128.956C126.201 128.954 126 128.912 125.813 128.832C125.628 128.752 125.46 128.637 125.319 128.492L120.198 123.371C119.911 123.084 119.75 122.695 119.75 122.289C119.75 121.883 119.911 121.494 120.198 121.207L125.319 116.086C125.46 115.941 125.628 115.826 125.813 115.746C126 115.666 126.201 115.623 126.404 115.621ZM141.764 115.621C141.967 115.623 142.167 115.666 142.354 115.746C142.539 115.826 142.707 115.941 142.848 116.086L147.969 121.207C148.256 121.494 148.417 121.883 148.417 122.289C148.417 122.695 148.256 123.084 147.969 123.371L142.848 128.492C142.707 128.637 142.539 128.752 142.354 128.832C142.167 128.912 141.967 128.954 141.764 128.956C141.561 128.958 141.359 128.92 141.171 128.843C140.983 128.766 140.812 128.651 140.668 128.508C140.524 128.364 140.411 128.194 140.334 128.006C140.257 127.818 140.218 127.616 140.22 127.413C140.221 127.21 140.264 127.009 140.344 126.822C140.424 126.636 140.54 126.466 140.687 126.325L144.723 122.288L140.687 118.252C140.541 118.111 140.424 117.942 140.344 117.756C140.264 117.569 140.221 117.368 140.22 117.165C140.218 116.962 140.257 116.76 140.334 116.572C140.411 116.384 140.524 116.213 140.668 116.069C140.812 115.926 140.983 115.812 141.171 115.735C141.359 115.659 141.561 115.619 141.764 115.621Z" fill="#A2E2D3" stroke="white" stroke-width="0.5"/>
<defs>
<linearGradient id="paint0_linear_6079_14219" x1="41" y1="0" x2="41" y2="82" gradientUnits="userSpaceOnUse">
<stop stop-color="#58A4A4"/>
<stop offset="1" stop-color="#073E39"/>
</linearGradient>
<linearGradient id="paint1_linear_6079_14219" x1="132" y1="51" x2="132" y2="133" gradientUnits="userSpaceOnUse">
<stop stop-color="#58A4A4"/>
<stop offset="1" stop-color="#073E39"/>
</linearGradient>
<linearGradient id="paint2_linear_6079_14219" x1="158" y1="11" x2="158" y2="49" gradientUnits="userSpaceOnUse">
<stop stop-color="#58A4A4"/>
<stop offset="1" stop-color="#073E39"/>
</linearGradient>
<linearGradient id="paint3_linear_6079_14219" x1="179" y1="11" x2="179" y2="15" gradientUnits="userSpaceOnUse">
<stop stop-color="#58A4A4"/>
<stop offset="1" stop-color="#073E39"/>
</linearGradient>
<linearGradient id="paint4_linear_6079_14219" x1="167" y1="53" x2="167" y2="57" gradientUnits="userSpaceOnUse">
<stop stop-color="#58A4A4"/>
<stop offset="1" stop-color="#073E39"/>
</linearGradient>
<linearGradient id="paint5_linear_6079_14219" x1="8" y1="114" x2="8" y2="126" gradientUnits="userSpaceOnUse">
<stop stop-color="#58A4A4"/>
<stop offset="1" stop-color="#073E39"/>
</linearGradient>
<linearGradient id="paint6_linear_6079_14219" x1="48" y1="136" x2="48" y2="140" gradientUnits="userSpaceOnUse">
<stop stop-color="#58A4A4"/>
<stop offset="1" stop-color="#073E39"/>
</linearGradient>
<linearGradient id="paint7_linear_6079_14219" x1="87.9988" y1="9.08203" x2="87.9988" y2="130.225" gradientUnits="userSpaceOnUse">
<stop stop-color="#58A4A4"/>
<stop offset="1" stop-color="#073E39"/>
</linearGradient>
<linearGradient id="paint8_linear_6079_14219" x1="89" y1="35" x2="89" y2="60.8281" gradientUnits="userSpaceOnUse">
<stop stop-color="#58A4A4"/>
<stop offset="1" stop-color="#073E39"/>
</linearGradient>
<linearGradient id="paint9_linear_6079_14219" x1="115.125" y1="44.5" x2="115.125" y2="60.8281" gradientUnits="userSpaceOnUse">
<stop stop-color="#58A4A4"/>
<stop offset="1" stop-color="#073E39"/>
</linearGradient>
<linearGradient id="paint10_linear_6079_14219" x1="62.875" y1="44.5" x2="62.875" y2="60.8281" gradientUnits="userSpaceOnUse">
<stop stop-color="#58A4A4"/>
<stop offset="1" stop-color="#073E39"/>
</linearGradient>
<linearGradient id="paint11_linear_6079_14219" x1="60.9594" y1="65.8633" x2="60.9594" y2="96.4826" gradientUnits="userSpaceOnUse">
<stop stop-color="#58A4A4"/>
<stop offset="1" stop-color="#073E39"/>
</linearGradient>
<linearGradient id="paint12_linear_6079_14219" x1="97.92" y1="65.7617" x2="97.92" y2="101.315" gradientUnits="userSpaceOnUse">
<stop stop-color="#58A4A4"/>
<stop offset="1" stop-color="#073E39"/>
</linearGradient>
<linearGradient id="paint13_linear_6079_14219" x1="134.5" y1="108" x2="134.5" y2="136" gradientUnits="userSpaceOnUse">
<stop stop-color="#58A4A4"/>
<stop offset="1" stop-color="#073E39"/>
</linearGradient>
</defs>
</svg>
