<svg width="157" height="117" viewBox="0 0 157 117" fill="none" xmlns="http://www.w3.org/2000/svg">
<g clip-path="url(#clip0_6_89)">
<path opacity="0.4" d="M20.6135 71.2124C24.6905 71.2124 28.6759 72.4195 32.0658 74.6811C35.4556 76.9426 38.0977 80.1571 39.6579 83.9179C41.2181 87.6788 41.6263 91.8171 40.8309 95.8096C40.0355 99.8021 38.0723 103.469 35.1895 106.348C32.3066 109.226 28.6336 111.186 24.635 111.981C20.6364 112.775 16.4917 112.367 12.7251 110.809C8.95843 109.252 5.73904 106.614 3.474 103.229C1.20896 99.8442 0 95.865 0 91.7942C0 86.3356 2.17177 81.1005 6.03756 77.2407C9.90334 73.3808 15.1465 71.2124 20.6135 71.2124Z" fill="url(#paint0_linear_6_89)"/>
<path opacity="0.4" d="M16.6838 117C17.0333 117 17.3749 116.896 17.6654 116.702C17.956 116.509 18.1825 116.233 18.3162 115.911C18.4499 115.588 18.4849 115.234 18.4167 114.891C18.3486 114.549 18.1803 114.235 17.9332 113.988C17.6861 113.741 17.3713 113.573 17.0285 113.505C16.6858 113.437 16.3305 113.472 16.0077 113.606C15.6848 113.739 15.4089 113.965 15.2148 114.255C15.0206 114.546 14.917 114.887 14.917 115.236C14.917 115.703 15.1031 116.152 15.4345 116.483C15.7658 116.814 16.2152 117 16.6838 117Z" fill="#F9F4F0"/>
<path opacity="0.4" d="M22.3017 116.524C22.541 116.524 22.775 116.453 22.9739 116.32C23.1728 116.187 23.3277 115.998 23.4191 115.777C23.5104 115.556 23.534 115.313 23.4869 115.079C23.4398 114.845 23.3241 114.63 23.1545 114.461C22.9849 114.293 22.769 114.178 22.5341 114.132C22.2992 114.086 22.056 114.111 21.8352 114.203C21.6144 114.295 21.426 114.451 21.2938 114.65C21.1616 114.849 21.0917 115.083 21.0928 115.322C21.0943 115.641 21.2223 115.947 21.4488 116.172C21.6754 116.397 21.982 116.524 22.3017 116.524Z" fill="#F9F4F0"/>
<path opacity="0.4" d="M7.14549 73.945C7.58837 73.945 8.02131 73.8139 8.38955 73.5682C8.75779 73.3225 9.0448 72.9733 9.21429 72.5648C9.38377 72.1563 9.42811 71.7067 9.34171 71.273C9.25531 70.8393 9.04204 70.4409 8.72888 70.1282C8.41571 69.8156 8.01672 69.6026 7.58235 69.5164C7.14798 69.4301 6.69774 69.4744 6.28857 69.6436C5.8794 69.8128 5.52968 70.0994 5.28363 70.467C5.03758 70.8347 4.90625 71.267 4.90625 71.7092C4.90625 72.3022 5.14217 72.8709 5.56211 73.2901C5.98205 73.7094 6.55161 73.945 7.14549 73.945Z" fill="#F9F4F0"/>
<path opacity="0.4" d="M145.907 23.3849C152.033 23.3849 157 18.4265 157 12.3099C157 6.19332 152.033 1.23486 145.907 1.23486C139.782 1.23486 134.815 6.19332 134.815 12.3099C134.815 18.4265 139.782 23.3849 145.907 23.3849Z" fill="url(#paint1_linear_6_89)"/>
<path opacity="0.4" d="M156.049 21.4868C156.237 21.4868 156.421 21.5425 156.577 21.6467C156.733 21.751 156.855 21.8992 156.927 22.0726C156.999 22.246 157.018 22.4368 156.981 22.6209C156.944 22.8049 156.854 22.974 156.721 23.1067C156.588 23.2394 156.419 23.3298 156.234 23.3664C156.05 23.403 155.859 23.3842 155.685 23.3124C155.512 23.2406 155.363 23.119 155.259 22.9629C155.154 22.8069 155.099 22.6234 155.099 22.4357C155.099 22.1841 155.199 21.9427 155.377 21.7647C155.555 21.5868 155.797 21.4868 156.049 21.4868Z" fill="#F9F4F0"/>
<path opacity="0.4" d="M153.885 24.3289C153.854 24.4536 153.787 24.5663 153.692 24.6527C153.596 24.7392 153.477 24.7954 153.35 24.8144C153.223 24.8334 153.093 24.8143 152.976 24.7595C152.86 24.7047 152.762 24.6166 152.696 24.5064C152.63 24.3962 152.598 24.2689 152.604 24.1405C152.61 24.0121 152.654 23.8884 152.731 23.785C152.807 23.6817 152.913 23.6034 153.034 23.5599C153.155 23.5165 153.286 23.5099 153.411 23.541C153.579 23.5827 153.723 23.6891 153.812 23.8369C153.901 23.9847 153.927 24.1616 153.885 24.3289Z" fill="#F9F4F0"/>
<path opacity="0.4" d="M153.534 2.41408C153.295 2.41408 153.061 2.34328 152.862 2.21065C152.664 2.07802 152.509 1.88951 152.417 1.66895C152.326 1.44839 152.302 1.2057 152.348 0.971557C152.395 0.737414 152.51 0.522341 152.679 0.353534C152.848 0.184726 153.064 0.0697672 153.298 0.0231934C153.533 -0.0233804 153.776 0.000523008 153.997 0.0918808C154.218 0.183239 154.406 0.337948 154.539 0.536444C154.672 0.73494 154.743 0.968308 154.743 1.20704C154.743 1.52716 154.616 1.83418 154.389 2.06054C154.162 2.28691 153.855 2.41408 153.534 2.41408Z" fill="#F9F4F0"/>
<path d="M140.917 9.76904H19.1037C16.5358 9.76904 14.4541 11.8475 14.4541 14.4115V95.5179C14.4541 98.0819 16.5358 100.16 19.1037 100.16H140.917C143.485 100.16 145.567 98.0819 145.567 95.5179V14.4115C145.567 11.8475 143.485 9.76904 140.917 9.76904Z" fill="#F6F2ED"/>
<path d="M140.917 10.4653H19.1035C16.9208 10.4653 15.1514 12.2321 15.1514 14.4114V95.5178C15.1514 97.6972 16.9208 99.4639 19.1035 99.4639H140.917C143.1 99.4639 144.869 97.6972 144.869 95.5178V14.4114C144.869 12.2321 143.1 10.4653 140.917 10.4653Z" stroke="#272421" stroke-width="1.5"/>
<path d="M133.877 17.4946H25.2627C23.08 17.4946 21.3105 19.2614 21.3105 21.4407V88.5938C21.3105 90.7731 23.08 92.5399 25.2627 92.5399H133.877C136.06 92.5399 137.829 90.7731 137.829 88.5938V21.4407C137.829 19.2614 136.06 17.4946 133.877 17.4946Z" stroke="#272421" stroke-width="1.5" stroke-dasharray="1.5 2"/>
<path d="M132.073 90.0305H27.5619C26.883 90.0288 26.2323 89.7587 25.7523 89.2794C25.2722 88.8 25.0017 88.1504 25 87.4725V23.558C25.0017 22.8801 25.2722 22.2305 25.7523 21.7511C26.2323 21.2718 26.883 21.0017 27.5619 21H132.073C132.752 21.0017 133.403 21.2718 133.883 21.7511C134.363 22.2305 134.634 22.8801 134.635 23.558V87.4725C134.634 88.1504 134.363 88.8 133.883 89.2794C133.403 89.7587 132.752 90.0288 132.073 90.0305Z" fill="#3C3C3C" stroke="#F6F2ED" stroke-width="0.283" stroke-miterlimit="10"/>
<path d="M92.7135 29.986C92.5505 29.8535 92.3705 29.7454 92.1742 29.6625C91.9779 29.5796 91.781 29.5049 91.5853 29.4383C91.389 29.3718 91.209 29.3029 91.0455 29.2311C90.8824 29.1593 90.751 29.0734 90.6511 28.9736C90.5512 28.8738 90.5015 28.7441 90.5015 28.5836C90.5015 28.3956 90.5763 28.2519 90.7259 28.1527C90.8754 28.0534 91.0799 28.0032 91.3399 28.0032C91.5666 28.0032 91.7699 28.0476 91.9499 28.1363C92.1298 28.2251 92.3051 28.3629 92.4769 28.5509L93.2235 27.8047C93.019 27.5671 92.7556 27.3732 92.4348 27.2244C92.114 27.0749 91.7541 27.0007 91.3557 27.0007C90.9794 27.0007 90.6423 27.0673 90.3432 27.1998C90.0446 27.3324 89.8092 27.5233 89.638 27.772C89.4668 28.0207 89.3809 28.3226 89.3809 28.6758C89.3809 28.9742 89.4306 29.2217 89.5299 29.4179C89.6298 29.6141 89.7607 29.7746 89.9243 29.899C90.0873 30.0234 90.2672 30.1267 90.4635 30.2102C90.6599 30.2931 90.8562 30.3667 91.0525 30.4297C91.2488 30.4934 91.4287 30.564 91.5923 30.6411C91.7553 30.7187 91.8868 30.8127 91.9867 30.9231C92.0866 31.034 92.1362 31.1776 92.1362 31.3546C92.1362 31.5589 92.0492 31.7195 91.8751 31.8356C91.701 31.9518 91.4673 32.0096 91.174 32.0096C90.8474 32.0096 90.571 31.9477 90.3438 31.8228C90.1171 31.6984 89.9179 31.5233 89.7467 31.2962L89 32.0423C89.2711 32.3629 89.5743 32.6034 89.9085 32.7634C90.2433 32.924 90.6458 33.0039 91.1161 33.0039C91.7799 33.0039 92.3028 32.8492 92.6843 32.5398C93.0664 32.2303 93.2568 31.8047 93.2568 31.2629C93.2568 30.9587 93.2072 30.703 93.1079 30.4957C93.0085 30.2884 92.8771 30.1185 92.7135 29.986Z" fill="#F6F2ED"/>
<path d="M95.8883 27.0911L93.5396 32.9209H94.718L95.1346 31.8343H97.5359L97.9466 32.9209H99.1502L96.8097 27.0911H95.8883ZM95.4963 30.8896L96.3428 28.6815L97.1777 30.8896H95.4963Z" fill="#F6F2ED"/>
<path d="M98.7342 28.0947H100.593V32.9215H101.73V28.0947H103.589V27.0911H98.7342V28.0947Z" fill="#F6F2ED"/>
<path d="M108.897 27.8664C108.623 27.5926 108.303 27.3801 107.938 27.2283C107.573 27.0765 107.174 27 106.743 27C106.317 27 105.921 27.0759 105.556 27.2283C105.191 27.3801 104.872 27.5932 104.598 27.8664C104.324 28.1403 104.112 28.4585 103.959 28.8205C103.807 29.1824 103.731 29.5742 103.731 29.994C103.731 30.4144 103.808 30.8079 103.963 31.1757C104.118 31.5436 104.332 31.8641 104.606 32.1379C104.88 32.4118 105.201 32.626 105.569 32.7807C105.937 32.9355 106.334 33.0131 106.76 33.0131C107.186 33.0131 107.58 32.9355 107.943 32.7807C108.305 32.626 108.623 32.4118 108.897 32.1379C109.171 31.8641 109.385 31.5447 109.54 31.1804C109.695 30.8155 109.772 30.4231 109.772 30.0028C109.772 29.583 109.695 29.19 109.54 28.8251C109.384 28.4596 109.17 28.1403 108.897 27.8664ZM108.374 31.0222C108.216 31.3153 107.999 31.5447 107.722 31.7105C107.445 31.8764 107.119 31.9593 106.743 31.9593C106.472 31.9593 106.221 31.9126 105.992 31.8186C105.762 31.7246 105.566 31.592 105.403 31.4204C105.239 31.2493 105.112 31.0414 105.021 30.7986C104.93 30.5551 104.884 30.2871 104.884 29.994C104.884 29.6069 104.963 29.2671 105.121 28.974C105.278 28.6815 105.497 28.4532 105.776 28.2897C106.055 28.1268 106.378 28.0451 106.743 28.0451C107.025 28.0451 107.279 28.0918 107.507 28.1858C107.733 28.2798 107.93 28.4141 108.096 28.5881C108.262 28.7621 108.389 28.9682 108.478 29.2058C108.566 29.4434 108.61 29.7062 108.61 29.994C108.61 30.3864 108.531 30.7291 108.374 31.0222Z" fill="#F6F2ED"/>
<path d="M114.29 31.8104C114.055 31.9096 113.774 31.9593 113.448 31.9593C113.177 31.9593 112.929 31.9126 112.705 31.8186C112.48 31.7246 112.286 31.5903 112.119 31.4163C111.953 31.2423 111.826 31.0362 111.738 30.7986C111.649 30.5609 111.605 30.2953 111.605 30.0022C111.605 29.7149 111.649 29.4504 111.738 29.2105C111.826 28.9699 111.953 28.7627 112.119 28.5887C112.285 28.4147 112.48 28.2821 112.705 28.1905C112.929 28.0994 113.176 28.0539 113.448 28.0539C113.758 28.0539 114.029 28.1035 114.261 28.2033C114.494 28.3026 114.689 28.441 114.85 28.6179L115.614 27.8542C115.343 27.5885 115.03 27.3801 114.676 27.2283C114.322 27.0765 113.912 27 113.448 27C113.016 27 112.619 27.0777 112.257 27.2324C111.894 27.3871 111.576 27.6002 111.303 27.8711C111.029 28.142 110.818 28.4596 110.672 28.8251C110.525 29.19 110.451 29.5824 110.451 30.0028C110.451 30.4231 110.525 30.8155 110.672 31.1804C110.818 31.5453 111.029 31.8647 111.303 32.1379C111.576 32.4118 111.896 32.6243 112.261 32.7767C112.626 32.9285 113.021 33.0044 113.447 33.0044C113.923 33.0044 114.341 32.9296 114.7 32.7807C115.06 32.6313 115.375 32.4211 115.646 32.1502L114.883 31.3871C114.723 31.5692 114.525 31.7105 114.29 31.8104Z" fill="#F6F2ED"/>
<path d="M120.095 29.4137H117.564V27.0911H116.435V32.9215H117.564V30.4085H120.095V32.9215H121.224V27.0911H120.095V29.4137Z" fill="#F6F2ED"/>
<path d="M123.547 27.0911H122.418V32.9209H123.547V27.0911Z" fill="#F6F2ED"/>
<path d="M128.742 27.9499C128.571 27.6761 128.337 27.4647 128.041 27.3153C127.746 27.1658 127.412 27.0911 127.041 27.0911H125.871H125.572H124.742V32.9209H125.871V30.7565H127.041C127.412 30.7565 127.745 30.6818 128.041 30.5323C128.337 30.3834 128.571 30.1721 128.742 29.8983C128.914 29.6244 129 29.2998 129 28.9238C128.999 28.5478 128.914 28.2232 128.742 27.9499ZM127.746 29.4172C127.663 29.5526 127.55 29.6565 127.406 29.7284C127.262 29.8002 127.102 29.8364 126.925 29.8364H125.871V28.0118H126.925C127.102 28.0118 127.262 28.048 127.406 28.1198C127.55 28.1916 127.663 28.2967 127.746 28.4351C127.829 28.5735 127.871 28.7364 127.871 28.9244C127.871 29.1176 127.829 29.2823 127.746 29.4172Z" fill="#F6F2ED"/>
<g clip-path="url(#clip1_6_89)">
<path d="M56.0061 41.2137H40.1939C38.9842 41.2137 38 42.1979 38 43.4076V54.7924C38 56.0021 38.9842 56.9863 40.1939 56.9863H56.0061C57.2158 56.9863 58.2 56.0021 58.2 54.7924V43.4076C58.2 42.1979 57.2158 41.2137 56.0061 41.2137ZM56.3421 48.8035H51.5589V46.5701C51.5589 46.3848 51.7096 46.2341 51.8949 46.2341H56.3421V48.8035ZM51.5589 49.3965H56.3421V51.9659H51.5589V49.3965ZM56.935 47.8153H57.607V50.3847H56.935V47.8153ZM56.935 47.2223V44.6528H57.607V47.2223H56.935ZM56.3421 45.6411H51.8949C51.3827 45.6411 50.9659 46.0578 50.9659 46.5701V55.1284H45.2341V43.0716H56.0061C56.1913 43.0716 56.3421 43.2224 56.3421 43.4076V45.6411ZM44.6411 48.8035H39.8579V46.2341H44.6411V48.8035ZM39.265 50.3847H38.593V47.8153H39.265V50.3847ZM39.8579 49.3965H44.6411V51.9659H39.8579V49.3965ZM48.3965 42.4787V41.8067H53.8121V42.4787H48.3965ZM47.8035 42.4787H42.3879V41.8067H47.8035V42.4787ZM44.6411 43.0716V45.6411H39.8579V43.4076C39.8579 43.2224 40.0087 43.0716 40.1939 43.0716H44.6411ZM39.265 47.2223H38.593V44.6528H39.265V47.2223ZM38.593 50.9777H39.265V53.5472H38.593V50.9777ZM39.8579 52.5589H44.6411V55.1284H40.1939C40.0087 55.1284 39.8579 54.9776 39.8579 54.7924V52.5589ZM47.8035 55.7213V56.3933H42.3879V55.7213H47.8035ZM48.3965 55.7213H53.8121V56.3933H48.3965V55.7213ZM51.5589 55.1284V52.5589H56.3421V54.7924C56.3421 54.9776 56.1913 55.1284 56.0061 55.1284H51.5589ZM56.935 50.9777H57.607V53.5472H56.935V50.9777ZM57.607 43.4076V44.0599H56.935V43.4076C56.935 42.8954 56.5183 42.4787 56.0061 42.4787H54.4051V41.8067H56.0061C56.8889 41.8067 57.607 42.5248 57.607 43.4076ZM40.1939 41.8067H41.7949V42.4787H40.1939C39.6817 42.4787 39.265 42.8954 39.265 43.4076V44.0599H38.593V43.4076C38.593 42.5248 39.3111 41.8067 40.1939 41.8067ZM38.593 54.7924V54.1401H39.265V54.7924C39.265 55.3046 39.6817 55.7213 40.1939 55.7213H41.7949V56.3933H40.1939C39.3111 56.3933 38.593 55.6752 38.593 54.7924ZM56.0061 56.3933H54.4051V55.7213H56.0061C56.5183 55.7213 56.935 55.3046 56.935 54.7924V54.1401H57.607V54.7924C57.607 55.6752 56.8889 56.3933 56.0061 56.3933Z" fill="#F6F2ED"/>
</g>
<path d="M65.3073 46.6658C65.3073 46.6658 65.6418 46.5138 65.8547 46.757C66.0676 47.0003 66.6149 47.943 66.6149 48.8857C66.6149 49.8284 66.3717 50.8319 66.1284 51.1664C65.8851 51.5009 65.6418 51.5009 65.4594 51.3793C65.2769 51.2577 62.4488 49.0986 62.2968 49.0378C62.1447 48.9769 62.0839 49.129 62.236 49.9501C62.388 50.7711 62.1447 51.0144 61.9319 51.0448C61.719 51.0752 61.0804 50.8927 61.05 49.1898C61.0196 47.4869 61.4757 47.2132 61.6886 47.2132C62.0886 47.2132 65.1256 49.955 65.3377 49.9196C65.5202 49.8892 65.6114 48.7337 65.2465 47.8214C64.8514 46.8336 65.3073 46.6658 65.3073 46.6658ZM70.1956 44.9629C71.2171 46.9913 71.1548 48.9093 71.1466 49.1118C71.1548 49.2881 71.2171 51.2087 70.1956 53.2371C70.1956 53.2371 69.9296 53.5412 69.5342 53.3588C69.1389 53.1763 69.2758 52.6898 69.2758 52.6898C69.2758 52.6898 70.1035 51.0917 70.0816 49.129L70.082 49.0986C70.1035 47.1356 69.2758 45.5103 69.2758 45.5103C69.2758 45.5103 69.1389 45.0237 69.5342 44.8412C69.9296 44.6588 70.1956 44.9629 70.1956 44.9629ZM68.2145 45.8752C69.0477 47.3956 68.9912 48.9093 68.9831 49.1118C68.9912 49.2881 69.0477 50.7407 68.2157 52.3842C68.2157 52.3842 67.9496 52.6883 67.5543 52.5059C67.1589 52.3234 67.2958 51.8369 67.2958 51.8369C67.2958 51.8369 67.8313 51.0752 67.9181 49.129L67.9185 49.0986C67.8617 47.1524 67.2947 46.4225 67.2947 46.4225C67.2947 46.4225 67.1578 45.936 67.5532 45.7535C67.9485 45.5711 68.2145 45.8752 68.2145 45.8752Z" fill="#F6F2ED"/>
</g>
<defs>
<linearGradient id="paint0_linear_6_89" x1="-0.62942" y1="73.1562" x2="64.5642" y2="102.452" gradientUnits="userSpaceOnUse">
<stop stop-color="#A58969"/>
<stop offset="1" stop-color="#C7B664"/>
</linearGradient>
<linearGradient id="paint1_linear_6_89" x1="134.477" y1="2.28084" x2="169.557" y2="18.0448" gradientUnits="userSpaceOnUse">
<stop stop-color="#A58969"/>
<stop offset="1" stop-color="#C7B664"/>
</linearGradient>
<clipPath id="clip0_6_89">
<rect width="157" height="117" fill="white"/>
</clipPath>
<clipPath id="clip1_6_89">
<rect width="20.2" height="20.2" fill="white" transform="translate(38 39)"/>
</clipPath>
</defs>
</svg>
