<svg width="157" height="123" viewBox="0 0 157 123" fill="none" xmlns="http://www.w3.org/2000/svg">
<g clip-path="url(#clip0_6_132)">
<path opacity="0.4" d="M20.6135 77.2129C24.6905 77.2129 28.6759 78.42 32.0658 80.6816C35.4556 82.9431 38.0977 86.1576 39.6579 89.9184C41.2181 93.6792 41.6263 97.8176 40.8309 101.81C40.0355 105.803 38.0723 109.47 35.1895 112.348C32.3066 115.227 28.6336 117.187 24.635 117.981C20.6364 118.775 16.4917 118.368 12.7251 116.81C8.95843 115.252 5.73904 112.614 3.474 109.229C1.20896 105.845 0 101.865 0 97.7947C0 92.3361 2.17177 87.101 6.03756 83.2412C9.90334 79.3813 15.1465 77.2129 20.6135 77.2129Z" fill="url(#paint0_linear_6_132)"/>
<path opacity="0.4" d="M16.6838 123C17.0333 123 17.3749 122.896 17.6654 122.703C17.956 122.509 18.1825 122.233 18.3162 121.911C18.4499 121.589 18.4849 121.234 18.4167 120.892C18.3486 120.549 18.1803 120.235 17.9332 119.988C17.6861 119.742 17.3713 119.574 17.0285 119.506C16.6858 119.438 16.3305 119.472 16.0077 119.606C15.6848 119.739 15.4089 119.966 15.2148 120.256C15.0206 120.546 14.917 120.887 14.917 121.236C14.917 121.704 15.1031 122.152 15.4345 122.483C15.7658 122.814 16.2152 123 16.6838 123Z" fill="#F9F4F0"/>
<path opacity="0.4" d="M22.3017 122.523C22.541 122.523 22.775 122.453 22.9739 122.32C23.1728 122.187 23.3277 121.998 23.4191 121.777C23.5104 121.556 23.534 121.313 23.4869 121.079C23.4398 120.845 23.3241 120.63 23.1545 120.461C22.9849 120.292 22.769 120.178 22.5341 120.132C22.2992 120.086 22.056 120.111 21.8352 120.203C21.6144 120.295 21.426 120.451 21.2938 120.65C21.1616 120.849 21.0917 121.083 21.0928 121.322C21.0943 121.641 21.2223 121.947 21.4488 122.172C21.6754 122.397 21.982 122.523 22.3017 122.523Z" fill="#F9F4F0"/>
<path opacity="0.4" d="M7.14549 79.9452C7.58837 79.9452 8.02131 79.8141 8.38955 79.5684C8.75779 79.3228 9.0448 78.9736 9.21429 78.565C9.38377 78.1565 9.42811 77.707 9.34171 77.2733C9.25531 76.8396 9.04204 76.4412 8.72888 76.1285C8.41571 75.8158 8.01672 75.6029 7.58235 75.5166C7.14798 75.4303 6.69774 75.4746 6.28857 75.6438C5.8794 75.813 5.52968 76.0996 5.28363 76.4673C5.03758 76.835 4.90625 77.2672 4.90625 77.7094C4.90625 78.3024 5.14217 78.8711 5.56211 79.2904C5.98205 79.7097 6.55161 79.9452 7.14549 79.9452Z" fill="#F9F4F0"/>
<path opacity="0.4" d="M145.907 29.3854C152.033 29.3854 157 24.427 157 18.3104C157 12.1938 152.033 7.23535 145.907 7.23535C139.782 7.23535 134.815 12.1938 134.815 18.3104C134.815 24.427 139.782 29.3854 145.907 29.3854Z" fill="url(#paint1_linear_6_132)"/>
<path opacity="0.4" d="M156.049 27.4863C156.237 27.4863 156.421 27.542 156.577 27.6462C156.733 27.7505 156.855 27.8987 156.927 28.0721C156.999 28.2455 157.018 28.4363 156.981 28.6204C156.944 28.8044 156.854 28.9735 156.721 29.1062C156.588 29.2389 156.419 29.3293 156.234 29.3659C156.05 29.4025 155.859 29.3838 155.685 29.3119C155.512 29.2401 155.363 29.1185 155.259 28.9624C155.154 28.8064 155.099 28.6229 155.099 28.4352C155.099 28.1836 155.199 27.9422 155.377 27.7643C155.555 27.5863 155.797 27.4863 156.049 27.4863Z" fill="#F9F4F0"/>
<path opacity="0.4" d="M153.885 30.3289C153.854 30.4536 153.787 30.5663 153.692 30.6527C153.596 30.7392 153.477 30.7954 153.35 30.8144C153.223 30.8334 153.093 30.8143 152.976 30.7595C152.86 30.7047 152.762 30.6166 152.696 30.5064C152.63 30.3962 152.598 30.2689 152.604 30.1405C152.61 30.0121 152.654 29.8884 152.731 29.785C152.807 29.6817 152.913 29.6034 153.034 29.5599C153.155 29.5165 153.286 29.5099 153.411 29.541C153.579 29.5827 153.723 29.6891 153.812 29.8369C153.901 29.9847 153.927 30.1616 153.885 30.3289Z" fill="#F9F4F0"/>
<path opacity="0.4" d="M153.534 8.41408C153.295 8.41408 153.061 8.34328 152.862 8.21065C152.664 8.07802 152.509 7.88951 152.417 7.66895C152.326 7.44839 152.302 7.2057 152.348 6.97156C152.395 6.73741 152.51 6.52234 152.679 6.35353C152.848 6.18473 153.064 6.06977 153.298 6.02319C153.533 5.97662 153.776 6.00052 153.997 6.09188C154.218 6.18324 154.406 6.33795 154.539 6.53644C154.672 6.73494 154.743 6.96831 154.743 7.20704C154.743 7.52716 154.616 7.83418 154.389 8.06054C154.162 8.28691 153.855 8.41408 153.534 8.41408Z" fill="#F9F4F0"/>
<path d="M140.917 15.7695H19.1037C16.5358 15.7695 14.4541 17.848 14.4541 20.412V101.518C14.4541 104.082 16.5358 106.161 19.1037 106.161H140.917C143.485 106.161 145.567 104.082 145.567 101.518V20.412C145.567 17.848 143.485 15.7695 140.917 15.7695Z" fill="#F6F2ED"/>
<path d="M140.917 16.4658H19.1035C16.9208 16.4658 15.1514 18.2325 15.1514 20.4119V101.518C15.1514 103.698 16.9208 105.464 19.1035 105.464H140.917C143.1 105.464 144.869 103.698 144.869 101.518V20.4119C144.869 18.2325 143.1 16.4658 140.917 16.4658Z" stroke="#272421" stroke-width="1.5"/>
<path d="M132.254 95.8254H27.7426C27.0637 95.8237 26.413 95.5536 25.9329 95.0743C25.4529 94.5949 25.1824 93.9453 25.1807 93.2674V29.3529C25.1824 28.675 25.4529 28.0254 25.9329 27.546C26.413 27.0667 27.0637 26.7966 27.7426 26.7949H132.254C132.933 26.7966 133.584 27.0667 134.064 27.546C134.544 28.0254 134.814 28.675 134.816 29.3529V93.2674C134.814 93.9453 134.544 94.5949 134.064 95.0743C133.584 95.5536 132.933 95.8237 132.254 95.8254Z" fill="#3C3C3C" stroke="#F6F2ED" stroke-width="0.283" stroke-miterlimit="10"/>
<path d="M133.877 23.4951H25.2627C23.08 23.4951 21.3105 25.2618 21.3105 27.4412V94.5943C21.3105 96.7736 23.08 98.5403 25.2627 98.5403H133.877C136.06 98.5403 137.829 96.7736 137.829 94.5943V27.4412C137.829 25.2618 136.06 23.4951 133.877 23.4951Z" stroke="#272421" stroke-width="1.5" stroke-dasharray="1.5 2"/>
<path d="M19.828 0.75H19.8279C10.9483 0.75 3.75 7.94832 3.75 16.8279C3.75 25.7075 10.9483 32.9058 19.8279 32.9058H19.828C28.7076 32.9058 35.9059 25.7075 35.9059 16.8279C35.9059 7.94832 28.7076 0.75 19.828 0.75Z" fill="url(#paint2_linear_6_132)"/>
<path d="M19.828 0.75H19.8279C10.9483 0.75 3.75 7.94832 3.75 16.8279C3.75 25.7075 10.9483 32.9058 19.8279 32.9058H19.828C28.7076 32.9058 35.9059 25.7075 35.9059 16.8279C35.9059 7.94832 28.7076 0.75 19.828 0.75Z" stroke="#F9F4F0" stroke-width="1.5"/>
<path d="M24.9613 12L17.3384 19.323L13.8377 15.7232L12 17.4202L16.3873 21.9331C16.503 22.0522 16.642 22.1476 16.7961 22.2137C16.9501 22.2798 17.1161 22.3154 17.2844 22.3182H17.3055C17.6379 22.318 17.9568 22.1903 18.1933 21.9628L26.7403 13.7565L24.9613 12Z" fill="#F6F2ED"/>
<path d="M92.7135 35.986C92.5505 35.8535 92.3705 35.7454 92.1742 35.6625C91.9779 35.5796 91.781 35.5049 91.5853 35.4383C91.389 35.3718 91.209 35.3029 91.0455 35.2311C90.8824 35.1593 90.751 35.0734 90.6511 34.9736C90.5512 34.8738 90.5015 34.7441 90.5015 34.5836C90.5015 34.3956 90.5763 34.2519 90.7259 34.1527C90.8754 34.0534 91.0799 34.0032 91.3399 34.0032C91.5666 34.0032 91.7699 34.0476 91.9499 34.1363C92.1298 34.2251 92.3051 34.3629 92.4769 34.5509L93.2235 33.8047C93.019 33.5671 92.7556 33.3732 92.4348 33.2244C92.114 33.0749 91.7541 33.0007 91.3557 33.0007C90.9794 33.0007 90.6423 33.0673 90.3432 33.1998C90.0446 33.3324 89.8092 33.5233 89.638 33.772C89.4668 34.0207 89.3809 34.3226 89.3809 34.6758C89.3809 34.9742 89.4306 35.2217 89.5299 35.4179C89.6298 35.6141 89.7607 35.7746 89.9243 35.899C90.0873 36.0234 90.2672 36.1267 90.4635 36.2102C90.6599 36.2931 90.8562 36.3667 91.0525 36.4297C91.2488 36.4934 91.4287 36.564 91.5923 36.6411C91.7553 36.7187 91.8868 36.8127 91.9867 36.9231C92.0866 37.034 92.1362 37.1776 92.1362 37.3546C92.1362 37.5589 92.0492 37.7195 91.8751 37.8356C91.701 37.9518 91.4673 38.0096 91.174 38.0096C90.8474 38.0096 90.571 37.9477 90.3438 37.8228C90.1171 37.6984 89.9179 37.5233 89.7467 37.2962L89 38.0423C89.2711 38.3629 89.5743 38.6034 89.9085 38.7634C90.2433 38.924 90.6458 39.0039 91.1161 39.0039C91.7799 39.0039 92.3028 38.8492 92.6843 38.5398C93.0664 38.2303 93.2568 37.8047 93.2568 37.2629C93.2568 36.9587 93.2072 36.703 93.1079 36.4957C93.0085 36.2884 92.8771 36.1185 92.7135 35.986Z" fill="#F6F2ED"/>
<path d="M95.8883 33.0911L93.5396 38.9209H94.718L95.1346 37.8343H97.5359L97.9466 38.9209H99.1502L96.8097 33.0911H95.8883ZM95.4963 36.8896L96.3428 34.6815L97.1777 36.8896H95.4963Z" fill="#F6F2ED"/>
<path d="M98.7342 34.0947H100.593V38.9215H101.73V34.0947H103.589V33.0911H98.7342V34.0947Z" fill="#F6F2ED"/>
<path d="M108.897 33.8664C108.623 33.5926 108.303 33.3801 107.938 33.2283C107.573 33.0765 107.174 33 106.743 33C106.317 33 105.921 33.0759 105.556 33.2283C105.191 33.3801 104.872 33.5932 104.598 33.8664C104.324 34.1403 104.112 34.4585 103.959 34.8205C103.807 35.1824 103.731 35.5742 103.731 35.994C103.731 36.4144 103.808 36.8079 103.963 37.1757C104.118 37.5436 104.332 37.8641 104.606 38.1379C104.88 38.4118 105.201 38.626 105.569 38.7807C105.937 38.9355 106.334 39.0131 106.76 39.0131C107.186 39.0131 107.58 38.9355 107.943 38.7807C108.305 38.626 108.623 38.4118 108.897 38.1379C109.171 37.8641 109.385 37.5447 109.54 37.1804C109.695 36.8155 109.772 36.4231 109.772 36.0028C109.772 35.583 109.695 35.19 109.54 34.8251C109.384 34.4596 109.17 34.1403 108.897 33.8664ZM108.374 37.0222C108.216 37.3153 107.999 37.5447 107.722 37.7105C107.445 37.8764 107.119 37.9593 106.743 37.9593C106.472 37.9593 106.221 37.9126 105.992 37.8186C105.762 37.7246 105.566 37.592 105.403 37.4204C105.239 37.2493 105.112 37.0414 105.021 36.7986C104.93 36.5551 104.884 36.2871 104.884 35.994C104.884 35.6069 104.963 35.2671 105.121 34.974C105.278 34.6815 105.497 34.4532 105.776 34.2897C106.055 34.1268 106.378 34.0451 106.743 34.0451C107.025 34.0451 107.279 34.0918 107.507 34.1858C107.733 34.2798 107.93 34.4141 108.096 34.5881C108.262 34.7621 108.389 34.9682 108.478 35.2058C108.566 35.4434 108.61 35.7062 108.61 35.994C108.61 36.3864 108.531 36.7291 108.374 37.0222Z" fill="#F6F2ED"/>
<path d="M114.29 37.8104C114.055 37.9096 113.775 37.9593 113.448 37.9593C113.177 37.9593 112.929 37.9126 112.705 37.8186C112.48 37.7246 112.286 37.5903 112.119 37.4163C111.953 37.2423 111.826 37.0362 111.738 36.7986C111.649 36.5609 111.605 36.2953 111.605 36.0022C111.605 35.7149 111.649 35.4504 111.738 35.2105C111.826 34.9699 111.953 34.7627 112.119 34.5887C112.285 34.4147 112.48 34.2821 112.705 34.1905C112.929 34.0994 113.176 34.0539 113.448 34.0539C113.758 34.0539 114.029 34.1035 114.261 34.2033C114.494 34.3026 114.689 34.441 114.85 34.6179L115.614 33.8542C115.343 33.5885 115.03 33.3801 114.676 33.2283C114.322 33.0765 113.912 33 113.448 33C113.016 33 112.619 33.0777 112.257 33.2324C111.894 33.3871 111.576 33.6002 111.303 33.8711C111.029 34.142 110.818 34.4596 110.672 34.8251C110.525 35.19 110.451 35.5824 110.451 36.0028C110.451 36.4231 110.525 36.8155 110.672 37.1804C110.818 37.5453 111.029 37.8647 111.303 38.1379C111.576 38.4118 111.896 38.6243 112.261 38.7767C112.626 38.9285 113.021 39.0044 113.447 39.0044C113.923 39.0044 114.341 38.9296 114.7 38.7807C115.06 38.6313 115.375 38.4211 115.646 38.1502L114.883 37.3871C114.723 37.5692 114.525 37.7105 114.29 37.8104Z" fill="#F6F2ED"/>
<path d="M120.095 35.4137H117.564V33.0911H116.435V38.9215H117.564V36.4085H120.095V38.9215H121.224V33.0911H120.095V35.4137Z" fill="#F6F2ED"/>
<path d="M123.547 33.0911H122.418V38.9209H123.547V33.0911Z" fill="#F6F2ED"/>
<path d="M128.742 33.9499C128.571 33.6761 128.337 33.4647 128.041 33.3153C127.746 33.1658 127.412 33.0911 127.041 33.0911H125.871H125.572H124.742V38.9209H125.871V36.7565H127.041C127.412 36.7565 127.745 36.6818 128.041 36.5323C128.337 36.3834 128.571 36.1721 128.742 35.8983C128.914 35.6244 129 35.2998 129 34.9238C128.999 34.5478 128.914 34.2232 128.742 33.9499ZM127.746 35.4172C127.663 35.5526 127.55 35.6565 127.406 35.7284C127.262 35.8002 127.102 35.8364 126.925 35.8364H125.871V34.0118H126.925C127.102 34.0118 127.262 34.048 127.406 34.1198C127.55 34.1916 127.663 34.2967 127.746 34.4351C127.829 34.5735 127.871 34.7364 127.871 34.9244C127.871 35.1176 127.829 35.2823 127.746 35.4172Z" fill="#F6F2ED"/>
<g clip-path="url(#clip1_6_132)">
<path d="M56.0061 47.2137H40.1939C38.9842 47.2137 38 48.1979 38 49.4076V60.7924C38 62.0021 38.9842 62.9863 40.1939 62.9863H56.0061C57.2158 62.9863 58.2 62.0021 58.2 60.7924V49.4076C58.2 48.1979 57.2158 47.2137 56.0061 47.2137ZM56.3421 54.8035H51.5589V52.5701C51.5589 52.3848 51.7096 52.2341 51.8949 52.2341H56.3421V54.8035ZM51.5589 55.3965H56.3421V57.9659H51.5589V55.3965ZM56.935 53.8153H57.607V56.3847H56.935V53.8153ZM56.935 53.2223V50.6528H57.607V53.2223H56.935ZM56.3421 51.6411H51.8949C51.3827 51.6411 50.9659 52.0578 50.9659 52.5701V61.1284H45.2341V49.0716H56.0061C56.1913 49.0716 56.3421 49.2224 56.3421 49.4076V51.6411ZM44.6411 54.8035H39.8579V52.2341H44.6411V54.8035ZM39.265 56.3847H38.593V53.8153H39.265V56.3847ZM39.8579 55.3965H44.6411V57.9659H39.8579V55.3965ZM48.3965 48.4787V47.8067H53.8121V48.4787H48.3965ZM47.8035 48.4787H42.3879V47.8067H47.8035V48.4787ZM44.6411 49.0716V51.6411H39.8579V49.4076C39.8579 49.2224 40.0087 49.0716 40.1939 49.0716H44.6411ZM39.265 53.2223H38.593V50.6528H39.265V53.2223ZM38.593 56.9777H39.265V59.5472H38.593V56.9777ZM39.8579 58.5589H44.6411V61.1284H40.1939C40.0087 61.1284 39.8579 60.9776 39.8579 60.7924V58.5589ZM47.8035 61.7213V62.3933H42.3879V61.7213H47.8035ZM48.3965 61.7213H53.8121V62.3933H48.3965V61.7213ZM51.5589 61.1284V58.5589H56.3421V60.7924C56.3421 60.9776 56.1913 61.1284 56.0061 61.1284H51.5589ZM56.935 56.9777H57.607V59.5472H56.935V56.9777ZM57.607 49.4076V50.0599H56.935V49.4076C56.935 48.8954 56.5183 48.4787 56.0061 48.4787H54.4051V47.8067H56.0061C56.8889 47.8067 57.607 48.5248 57.607 49.4076ZM40.1939 47.8067H41.7949V48.4787H40.1939C39.6817 48.4787 39.265 48.8954 39.265 49.4076V50.0599H38.593V49.4076C38.593 48.5248 39.3111 47.8067 40.1939 47.8067ZM38.593 60.7924V60.1401H39.265V60.7924C39.265 61.3046 39.6817 61.7213 40.1939 61.7213H41.7949V62.3933H40.1939C39.3111 62.3933 38.593 61.6752 38.593 60.7924ZM56.0061 62.3933H54.4051V61.7213H56.0061C56.5183 61.7213 56.935 61.3046 56.935 60.7924V60.1401H57.607V60.7924C57.607 61.6752 56.8889 62.3933 56.0061 62.3933Z" fill="#F6F2ED"/>
</g>
<path d="M65.3073 52.6658C65.3073 52.6658 65.6418 52.5138 65.8547 52.757C66.0675 53.0003 66.6149 53.943 66.6149 54.8857C66.6149 55.8284 66.3716 56.8319 66.1284 57.1664C65.8851 57.5009 65.6418 57.5009 65.4593 57.3793C65.2769 57.2577 62.4488 55.0986 62.2968 55.0378C62.1447 54.9769 62.0839 55.129 62.2359 55.9501C62.388 56.7711 62.1447 57.0144 61.9318 57.0448C61.719 57.0752 61.0804 56.8927 61.05 55.1898C61.0196 53.4869 61.4757 53.2132 61.6886 53.2132C62.0885 53.2132 65.1256 55.955 65.3377 55.9196C65.5202 55.8892 65.6114 54.7337 65.2465 53.8214C64.8513 52.8336 65.3073 52.6658 65.3073 52.6658ZM70.1956 50.9629C71.2171 52.9913 71.1547 54.9093 71.1466 55.1118C71.1547 55.2881 71.2171 57.2087 70.1956 59.2371C70.1956 59.2371 69.9295 59.5412 69.5342 59.3588C69.1389 59.1763 69.2757 58.6898 69.2757 58.6898C69.2757 58.6898 70.1035 57.0917 70.0816 55.129L70.082 55.0986C70.1035 53.1356 69.2757 51.5103 69.2757 51.5103C69.2757 51.5103 69.1389 51.0237 69.5342 50.8412C69.9295 50.6588 70.1956 50.9629 70.1956 50.9629ZM68.2145 51.8752C69.0477 53.3956 68.9912 54.9093 68.983 55.1118C68.9912 55.2881 69.0477 56.7407 68.2156 58.3842C68.2156 58.3842 67.9496 58.6883 67.5542 58.5059C67.1589 58.3234 67.2958 57.8369 67.2958 57.8369C67.2958 57.8369 67.8313 57.0752 67.918 55.129L67.9184 55.0986C67.8617 53.1524 67.2946 52.4225 67.2946 52.4225C67.2946 52.4225 67.1578 51.936 67.5531 51.7535C67.9485 51.5711 68.2145 51.8752 68.2145 51.8752Z" fill="#F6F2ED"/>
</g>
<defs>
<linearGradient id="paint0_linear_6_132" x1="-0.62942" y1="79.1567" x2="64.5642" y2="108.453" gradientUnits="userSpaceOnUse">
<stop stop-color="#846E55"/>
<stop offset="1" stop-color="#B3A55C"/>
</linearGradient>
<linearGradient id="paint1_linear_6_132" x1="134.477" y1="8.28133" x2="169.557" y2="24.0453" gradientUnits="userSpaceOnUse">
<stop stop-color="#846E55"/>
<stop offset="1" stop-color="#B3A55C"/>
</linearGradient>
<linearGradient id="paint2_linear_6_132" x1="2.48617" y1="1.5893" x2="55.7348" y2="25.4807" gradientUnits="userSpaceOnUse">
<stop stop-color="#846E55"/>
<stop offset="1" stop-color="#B3A55C"/>
</linearGradient>
<clipPath id="clip0_6_132">
<rect width="157" height="123" fill="white"/>
</clipPath>
<clipPath id="clip1_6_132">
<rect width="20.2" height="20.2" fill="white" transform="translate(38 45)"/>
</clipPath>
</defs>
</svg>
